<?xml version="1.0" standalone="no"?>
<!DOCTYPE svg PUBLIC "-//W3C//DTD SVG 20010904//EN"
 "http://www.w3.org/TR/2001/REC-SVG-20010904/DTD/svg10.dtd">
<svg version="1.0" xmlns="http://www.w3.org/2000/svg"
 width="501.000000pt" height="501.000000pt" viewBox="0 0 501.000000 501.000000"
 preserveAspectRatio="xMidYMid meet">
<metadata>
Created by potrace 1.14, written by Peter Selinger 2001-2017
</metadata>
<g transform="translate(0.000000,501.000000) scale(0.100000,-0.100000)"
fill="#000000" stroke="none">
<path d="M1630 4394 c-834 -127 -1477 -769 -1606 -1604 -22 -143 -21 -421 1
-560 110 -688 552 -1242 1194 -1494 355 -140 793 -165 1173 -67 l113 29 113
-29 c380 -98 818 -73 1173 67 643 253 1091 814 1194 1499 22 144 22 413 1 555
-106 689 -572 1263 -1218 1504 -356 132 -778 154 -1143 59 -55 -14 -109 -26
-120 -26 -11 0 -65 12 -120 26 -55 14 -148 33 -206 41 -133 20 -418 19 -549 0z
m-84 -353 c5 -4 30 -14 57 -21 26 -7 47 -16 47 -21 0 -4 9 -10 20 -14 23 -7
110 -95 110 -111 0 -7 6 -14 13 -17 7 -3 19 -24 26 -48 7 -24 18 -55 25 -68
10 -21 106 -105 191 -166 16 -11 33 -24 39 -30 6 -5 28 -23 49 -38 20 -16 49
-38 62 -50 14 -12 37 -31 51 -42 14 -11 37 -29 50 -40 13 -11 40 -31 60 -45
20 -14 45 -33 55 -42 18 -17 20 -17 38 0 24 22 59 51 101 82 18 14 40 32 50
40 10 8 32 26 50 40 18 14 38 30 44 36 6 6 24 19 41 30 31 19 49 34 90 69 12
11 35 29 50 40 16 11 33 25 39 30 6 6 28 21 48 34 36 21 50 43 78 121 12 32
61 101 100 140 27 27 105 68 143 75 20 4 40 11 43 16 7 11 157 12 170 1 5 -5
29 -14 53 -21 24 -7 50 -18 57 -24 8 -7 25 -21 40 -32 73 -56 117 -113 135
-176 7 -24 17 -50 22 -57 14 -18 12 -175 -2 -180 -6 -2 -11 -10 -11 -18 0 -8
-6 -29 -13 -47 -8 -18 -14 -36 -15 -41 0 -5 -7 -13 -16 -18 -9 -5 -16 -14 -16
-21 0 -21 -101 -104 -137 -113 -13 -4 -23 -9 -23 -13 0 -12 -98 -31 -161 -31
-35 0 -66 -5 -74 -12 -7 -7 -39 -35 -70 -63 -32 -27 -81 -73 -111 -101 -29
-28 -68 -62 -86 -77 -60 -47 -98 -86 -98 -101 0 -9 5 -16 10 -16 6 0 10 -5 10
-12 0 -6 11 -25 24 -42 62 -82 91 -209 75 -338 -7 -60 -43 -158 -69 -191 -5
-7 -24 -29 -41 -50 l-32 -38 34 -35 c34 -36 336 -334 370 -367 11 -10 35 -17
58 -17 49 0 143 -18 150 -29 4 -4 17 -11 31 -14 14 -3 36 -14 49 -24 33 -25
120 -116 121 -128 1 -2 7 -20 15 -39 8 -20 15 -44 15 -55 0 -11 5 -21 11 -23
15 -5 17 -167 3 -176 -6 -4 -16 -28 -23 -54 -7 -26 -21 -57 -30 -69 -31 -43
-122 -129 -137 -129 -8 0 -14 -4 -14 -10 0 -5 -19 -15 -42 -21 -24 -7 -48 -16
-55 -21 -15 -12 -182 -12 -196 0 -7 5 -25 12 -42 16 -16 4 -47 18 -67 31 -43
29 -117 105 -118 121 0 7 -6 14 -13 17 -7 3 -19 24 -26 48 -25 81 -39 104 -93
144 -29 22 -60 47 -69 55 -19 16 -84 71 -127 107 -15 12 -39 32 -54 45 -14 13
-41 35 -58 48 -18 14 -41 32 -51 40 -9 8 -32 26 -50 40 -17 14 -39 32 -48 40
-45 40 -48 42 -71 28 -12 -7 -37 -26 -55 -43 -18 -16 -49 -43 -70 -60 -20 -16
-45 -37 -55 -45 -10 -8 -29 -24 -42 -34 -12 -11 -39 -33 -59 -50 -20 -17 -48
-40 -63 -51 -14 -11 -38 -30 -53 -43 -16 -12 -32 -26 -38 -30 -59 -43 -118
-102 -129 -126 -7 -17 -21 -50 -31 -73 -10 -24 -22 -43 -27 -43 -4 0 -8 -6 -8
-12 0 -18 -86 -105 -110 -113 -11 -4 -20 -10 -20 -14 0 -5 -21 -14 -47 -21
-27 -8 -51 -18 -54 -23 -9 -13 -193 -11 -197 3 -2 5 -11 10 -20 10 -33 0 -105
44 -155 95 -63 63 -80 85 -70 85 4 0 2 4 -5 8 -6 5 -18 32 -24 60 -7 29 -16
52 -20 52 -12 0 -10 138 2 145 5 3 10 17 10 31 0 14 7 40 15 60 8 19 15 38 17
42 10 32 137 150 169 157 16 4 29 10 29 15 0 9 111 30 162 30 31 0 47 12 144
107 61 60 149 145 197 191 85 80 97 100 77 125 -23 28 -57 85 -80 137 -22 49
-25 69 -25 185 0 122 2 134 29 190 15 33 31 62 34 65 8 6 52 68 52 73 0 3
-154 167 -197 210 -5 4 -47 46 -95 92 l-87 85 -66 0 c-69 0 -155 17 -155 30 0
4 -10 10 -22 14 -37 9 -138 92 -138 113 0 7 -8 16 -17 22 -10 5 -17 12 -16 15
1 3 -4 21 -12 40 -8 20 -15 45 -15 56 0 11 -4 20 -10 20 -12 0 -14 142 -2 156
5 5 14 35 21 67 7 32 19 61 27 64 8 3 14 10 14 17 0 11 40 54 90 99 31 27 80
51 140 70 50 16 181 22 196 8z"/>
<path d="M1413 3843 c-18 -3 -33 -8 -33 -12 0 -4 -11 -13 -24 -19 -30 -13 -66
-44 -66 -55 0 -5 -7 -15 -15 -23 -11 -11 -15 -37 -15 -89 0 -52 4 -78 15 -89
8 -8 15 -19 15 -24 0 -17 75 -61 122 -71 92 -21 201 25 227 95 6 17 11 60 11
95 0 56 -4 71 -29 105 -17 22 -42 46 -58 54 -15 8 -30 18 -33 21 -7 9 -80 16
-117 12z"/>
<path d="M3358 3842 c-21 -2 -38 -7 -38 -11 0 -5 -12 -14 -27 -21 -16 -6 -41
-28 -58 -47 -27 -33 -30 -42 -30 -115 0 -59 4 -81 15 -88 8 -5 11 -10 5 -10
-5 0 6 -15 26 -33 60 -56 130 -73 206 -54 48 13 127 72 118 88 -3 4 0 9 7 11
19 7 17 156 -2 168 -8 6 -10 10 -5 10 15 0 -74 80 -90 80 -7 0 -15 4 -17 8 -4
11 -62 19 -110 14z"/>
<path d="M3000 3485 c-19 -18 -229 -183 -265 -209 -14 -11 -34 -27 -44 -35
-10 -9 -33 -27 -51 -41 -17 -13 -43 -35 -56 -47 -14 -13 -29 -23 -33 -23 -4 0
-20 -10 -34 -22 -14 -13 -37 -32 -51 -43 -15 -11 -37 -29 -49 -41 -12 -12 -40
-34 -62 -50 -22 -16 -45 -33 -51 -39 -6 -5 -25 -21 -43 -34 -17 -14 -44 -36
-59 -50 -16 -14 -50 -44 -77 -66 -86 -71 -134 -125 -141 -161 -3 -19 -10 -34
-15 -34 -12 0 -12 -87 0 -94 5 -3 14 -26 20 -51 6 -25 16 -45 21 -45 6 0 10
-7 10 -15 0 -22 23 -18 53 8 14 12 48 42 77 67 28 25 71 63 95 85 69 63 177
162 210 191 17 14 60 54 96 88 37 33 99 90 138 126 39 36 91 83 114 105 24 22
76 69 116 105 40 36 108 100 151 142 l80 77 -60 60 c-33 34 -64 61 -68 60 -4
0 -14 -7 -22 -14z"/>
<path d="M1756 3435 c-31 -31 -56 -59 -56 -64 0 -18 352 -361 363 -354 12 7
33 24 72 58 12 11 37 31 54 45 17 14 31 29 31 35 0 6 -14 21 -31 35 -17 14
-42 34 -54 45 -13 12 -38 32 -56 45 -18 14 -37 30 -43 35 -6 6 -32 25 -56 44
-48 37 -54 42 -114 96 -21 19 -42 35 -46 35 -4 0 -33 -25 -64 -55z"/>
<path d="M2719 2687 c-76 -71 -230 -212 -274 -252 -164 -145 -755 -736 -755
-754 0 -6 16 -26 35 -45 19 -20 35 -38 35 -40 0 -3 12 -17 26 -31 29 -29 27
-29 90 30 28 26 87 75 144 120 25 20 61 50 81 68 20 18 58 50 85 72 26 22 61
52 78 68 16 15 32 27 35 27 3 0 26 19 51 41 25 22 60 52 77 67 18 15 53 45 77
67 24 22 65 58 91 80 26 22 57 49 70 60 13 11 46 40 75 65 133 115 150 142
150 235 0 36 -4 65 -8 65 -5 0 -15 18 -22 39 -7 22 -19 42 -26 45 -8 3 -14 12
-14 21 0 31 -37 13 -101 -48z"/>
<path d="M2726 2048 c-16 -13 -46 -40 -68 -60 -22 -21 -44 -38 -49 -38 -5 0
-9 -9 -9 -20 0 -11 5 -20 10 -20 6 0 18 -8 28 -17 10 -10 56 -49 102 -88 47
-38 95 -79 107 -90 12 -11 38 -33 59 -50 20 -16 60 -51 87 -77 27 -27 53 -48
58 -48 14 0 119 113 119 128 0 13 -108 132 -169 186 -25 22 -46 44 -150 150
-36 36 -72 66 -81 66 -8 0 -28 -10 -44 -22z"/>
<path d="M1379 1570 c-26 -7 -120 -90 -103 -90 4 0 3 -5 -4 -12 -18 -18 -16
-142 3 -158 8 -7 15 -18 15 -25 0 -7 15 -25 33 -39 17 -15 39 -32 46 -38 23
-19 154 -16 175 4 9 9 24 19 34 23 9 3 28 20 42 38 22 28 25 41 25 116 0 59
-4 86 -12 89 -7 2 -13 9 -13 16 0 17 -55 62 -91 75 -36 12 -111 13 -150 1z"/>
<path d="M3323 1569 c-18 -5 -33 -13 -33 -18 0 -4 -11 -13 -25 -19 -14 -6 -25
-18 -25 -26 0 -8 -8 -19 -17 -25 -14 -7 -17 -24 -18 -83 0 -66 3 -80 28 -115
15 -22 40 -46 55 -54 15 -8 30 -18 34 -24 9 -12 147 -12 156 0 4 6 19 16 34
24 15 8 40 32 55 54 24 35 28 50 28 112 -1 71 -1 71 -47 118 -62 64 -135 82
-225 56z"/>
</g>
</svg>
