<?xml version="1.0" standalone="no"?>
<svg viewBox="0 0 200 200" xmlns="http://www.w3.org/2000/svg">
  <path fill="#EEF1FF" d="M30.5,-42.1C43.6,-45.3,61,-45.3,72.7,-37.7C84.4,-30.2,90.4,-15.1,90.6,0.1C90.7,15.3,85,30.5,71.9,35.7C58.8,40.9,38.4,36,25.2,36.7C12,37.4,6,43.6,-4.8,52C-15.7,60.3,-31.3,70.8,-41.6,68.5C-51.9,66.1,-56.9,50.9,-60.4,37.4C-63.9,23.8,-65.8,11.9,-59.4,3.7C-52.9,-4.4,-37.9,-8.9,-32.9,-19.6C-27.8,-30.4,-32.6,-47.6,-28.7,-49.7C-24.9,-51.8,-12.5,-39,-1.9,-35.7C8.7,-32.5,17.5,-38.9,30.5,-42.1Z" transform="translate(100 100)" />
</svg>
