<?xml version="1.0" encoding="UTF-8" standalone="no"?>
<!DOCTYPE svg PUBLIC "-//W3C//DTD SVG 1.1//EN" "http://www.w3.org/Graphics/SVG/1.1/DTD/svg11.dtd">
<svg xmlns="http://www.w3.org/2000/svg" version="1.1" viewBox="0.00 0.00 1448.00 1448.00">
<g stroke-width="2.00" fill="none" stroke-linecap="butt">
<path stroke="#4b4a4b" vector-effect="non-scaling-stroke" d="
  M 588.62 197.66
  Q 587.16 197.86 585.74 198.26
  Q 563.64 204.55 542.20 212.82
  Q 526.77 218.78 511.44 225.00
  C 479.82 237.83 451.69 253.70 421.67 272.65
  Q 413.20 277.99 405.12 283.85
  C 382.06 300.56 363.04 316.71 341.62 336.98
  Q 334.25 343.96 327.57 351.20
  Q 305.80 374.81 285.75 399.89
  C 274.36 414.14 264.53 429.55 254.61 444.83
  C 240.74 466.18 231.21 484.92 220.65 507.68
  Q 216.05 517.58 212.70 526.02
  Q 199.77 558.60 192.36 587.03
  Q 186.45 609.73 185.14 615.56
  Q 179.44 640.99 176.52 676.00
  Q 173.74 709.28 175.23 747.01
  Q 175.62 756.90 176.77 766.94
  C 179.18 787.98 182.32 808.87 187.17 829.51
  Q 188.98 837.24 195.09 859.36
  C 204.40 893.13 217.95 924.03 232.94 955.13
  Q 236.07 961.62 240.12 968.95
  C 244.84 977.51 249.54 986.60 254.29 994.60
  Q 259.45 1003.31 261.58 1006.18
  C 266.06 1012.25 270.66 1019.67 274.31 1024.82
  Q 288.15 1044.35 303.28 1062.94
  A 1.07 1.07 0.0 0 0 303.59 1063.20
  Q 305.37 1064.28 305.72 1062.59
  Q 306.41 1059.21 306.29 1055.76
  C 305.73 1040.31 306.44 1022.18 306.54 1009.51
  C 306.82 971.91 306.45 934.34 306.49 896.75
  Q 306.59 818.88 306.49 741.00
  Q 306.44 705.81 307.68 663.25
  C 308.12 648.15 309.47 632.81 312.08 619.51
  Q 315.90 600.03 320.84 587.82
  C 325.99 575.12 331.42 561.56 338.44 550.72
  Q 344.86 540.79 354.83 527.98
  Q 357.34 524.75 360.58 521.41
  C 365.65 516.17 371.09 510.23 375.81 505.79
  Q 398.02 484.84 421.02 471.31
  Q 435.59 462.73 491.92 431.45
  Q 517.20 417.41 534.94 408.13
  C 552.24 399.08 569.00 389.81 586.70 380.84
  C 622.86 362.50 660.74 342.05 684.29 329.26
  C 702.14 319.56 716.41 308.45 728.96 292.96
  Q 740.22 279.06 752.16 265.73
  C 753.96 263.71 755.76 261.16 757.72 258.97
  C 773.29 241.67 788.08 223.76 803.42 206.27
  C 809.22 199.66 815.19 193.29 820.43 186.20
  A 1.47 1.47 0.0 0 0 819.99 184.05
  Q 819.10 183.52 817.73 183.32
  Q 795.01 180.03 772.12 178.65
  Q 763.78 178.15 752.13 177.92
  C 694.34 176.78 644.56 181.84 589.24 197.30
  Q 589.15 197.32 589.02 197.45
  Q 588.85 197.63 588.62 197.66"
/>
<path stroke="#4b4a4b" vector-effect="non-scaling-stroke" d="
  M 956.30 999.95
  Q 939.86 1007.49 923.45 1015.10
  Q 902.55 1024.79 881.53 1034.24
  Q 867.60 1040.50 854.01 1047.46
  C 850.35 1049.33 845.68 1051.15 841.80 1053.04
  C 827.95 1059.76 813.01 1065.80 800.00 1072.40
  Q 785.40 1079.80 771.06 1087.69
  C 753.37 1097.42 737.11 1110.27 724.60 1126.06
  C 704.61 1151.31 684.46 1178.87 664.27 1205.25
  C 651.38 1222.08 637.13 1237.93 622.81 1253.61
  Q 621.76 1254.76 622.91 1255.80
  C 624.48 1257.21 629.91 1257.30 632.00 1257.39
  C 665.74 1258.73 700.86 1260.28 733.74 1257.97
  Q 788.25 1254.13 842.75 1239.08
  Q 859.02 1234.59 889.01 1224.63
  Q 893.87 1223.02 899.21 1220.87
  C 907.63 1217.49 916.43 1214.16 924.40 1210.64
  Q 944.83 1201.62 951.58 1198.56
  Q 985.68 1183.09 1018.81 1160.55
  C 1028.94 1153.67 1039.10 1146.86 1048.68 1139.32
  C 1066.20 1125.53 1083.77 1111.73 1099.85 1095.91
  Q 1128.38 1067.84 1145.32 1047.82
  Q 1165.87 1023.53 1172.41 1013.66
  C 1175.95 1008.33 1180.16 1002.86 1182.70 998.98
  Q 1199.68 973.00 1207.34 958.01
  Q 1224.66 924.12 1228.57 914.81
  C 1238.92 890.12 1246.62 870.02 1252.48 846.74
  Q 1257.83 825.47 1262.15 803.97
  Q 1263.21 798.69 1264.05 792.47
  C 1265.36 782.83 1266.96 772.39 1267.79 763.53
  C 1271.78 721.00 1270.26 681.62 1264.63 636.76
  Q 1263.80 630.10 1262.80 625.11
  C 1260.07 611.44 1257.58 597.79 1254.07 584.74
  Q 1246.54 556.71 1236.00 528.49
  C 1232.18 518.28 1227.08 507.50 1222.52 497.01
  C 1216.76 483.72 1210.09 473.40 1201.68 457.78
  Q 1192.44 440.63 1176.22 418.27
  C 1170.41 410.26 1163.12 401.37 1156.59 392.89
  C 1152.34 387.36 1147.57 381.77 1142.47 377.01
  Q 1139.85 374.57 1137.57 371.90
  A 1.14 1.13 36.8 0 0 1135.67 372.17
  Q 1135.10 373.43 1135.03 374.76
  Q 1134.68 381.34 1134.76 387.92
  C 1134.90 401.16 1134.67 412.82 1134.62 427.75
  Q 1134.44 481.12 1134.27 534.50
  C 1134.19 559.25 1134.44 583.99 1134.13 608.74
  Q 1134.00 619.56 1134.03 628.75
  Q 1134.29 698.62 1133.80 768.50
  Q 1133.60 798.57 1132.40 811.63
  Q 1130.79 829.12 1124.84 849.94
  Q 1121.96 860.04 1118.31 868.83
  Q 1112.03 883.95 1104.97 894.26
  Q 1093.44 911.09 1089.17 916.16
  Q 1065.39 944.39 1035.66 960.92
  C 1012.96 973.55 985.51 986.55 956.30 999.95"
/>
</g>
<path fill="#141213" d="
  M 625.91 9.86
  Q 634.62 8.74 643.31 7.48
  C 653.44 6.01 663.21 5.54 673.26 4.88
  C 720.80 1.73 768.68 3.64 816.21 8.50
  C 824.27 9.32 834.52 11.13 843.74 12.28
  Q 849.38 12.98 854.69 14.08
  C 864.59 16.13 874.99 17.75 884.39 19.86
  C 897.78 22.86 911.56 25.36 924.64 29.48
  C 946.80 36.47 967.09 41.87 989.98 52.41
  C 994.47 54.48 998.98 55.95 1003.63 57.61
  A 1.75 1.64 -89.6 0 1 1004.69 58.76
  Q 1004.88 59.40 1004.24 60.24
  C 1002.66 62.33 1001.02 63.77 998.48 64.99
  C 992.59 67.85 988.41 72.59 983.29 76.26
  C 969.33 86.27 956.13 96.40 945.04 104.30
  C 912.01 127.84 877.97 151.94 846.79 175.81
  C 841.44 179.90 840.03 182.65 840.00 189.50
  C 839.86 218.14 840.41 244.47 840.23 271.00
  Q 839.94 314.12 839.96 357.25
  C 839.97 370.00 839.98 385.87 838.00 397.92
  C 832.60 430.70 813.82 456.43 785.38 473.11
  C 758.44 488.91 728.97 501.28 700.49 514.48
  C 677.22 525.27 653.92 536.06 630.80 547.19
  C 619.09 552.82 605.20 558.68 595.26 563.47
  Q 553.52 583.60 511.82 603.84
  Q 503.28 607.98 490.59 616.05
  Q 461.75 634.40 445.89 664.71
  C 436.81 682.08 432.96 703.10 432.21 722.50
  Q 431.42 742.74 431.34 763.00
  C 430.78 903.58 431.24 1044.17 430.61 1184.75
  Q 430.59 1191.00 430.48 1197.25
  C 430.41 1201.12 428.42 1203.70 425.19 1206.16
  C 419.59 1210.44 413.84 1215.48 408.75 1219.39
  Q 373.58 1246.39 338.56 1273.57
  C 335.46 1275.97 331.72 1279.29 328.27 1281.91
  C 317.91 1289.76 307.50 1297.17 298.16 1306.16
  Q 297.80 1306.50 297.41 1306.19
  C 290.54 1300.77 283.09 1295.30 276.75 1290.01
  C 235.94 1255.90 201.16 1220.60 167.92 1179.58
  Q 147.58 1154.47 139.09 1141.46
  C 127.53 1123.76 115.88 1106.18 105.32 1087.85
  Q 103.66 1084.96 102.00 1082.07
  Q 83.35 1049.53 68.17 1015.22
  Q 62.58 1002.58 57.19 989.83
  C 53.05 980.07 47.81 965.88 44.13 953.55
  C 42.51 948.11 40.14 942.04 38.67 937.46
  C 33.20 920.53 29.78 907.14 25.94 893.06
  C 20.53 873.23 17.80 854.02 13.69 832.78
  Q 12.39 826.05 11.63 819.63
  C 9.77 803.98 6.87 787.99 5.75 772.78
  Q 2.80 732.57 3.82 692.25
  C 4.23 675.70 5.33 659.72 7.71 642.83
  Q 10.06 626.15 12.34 609.45
  Q 12.65 607.21 13.24 604.58
  C 15.06 596.53 16.42 588.54 17.94 580.44
  C 18.33 578.33 19.20 576.02 19.65 573.74
  C 21.26 565.71 22.81 558.21 25.02 549.84
  C 27.28 541.33 29.07 532.83 31.80 524.51
  Q 35.66 512.78 39.21 500.96
  C 41.17 494.47 44.00 487.29 46.08 480.31
  C 46.93 477.48 48.55 474.64 49.38 472.31
  C 52.42 463.68 55.40 454.96 59.28 446.67
  C 60.59 443.87 61.64 440.58 62.70 438.11
  C 75.20 409.17 89.34 380.32 105.89 353.47
  C 118.33 333.29 129.07 317.76 141.10 300.18
  C 151.23 285.38 162.79 271.45 174.54 257.92
  C 181.61 249.77 192.95 236.19 202.87 225.87
  C 224.39 203.49 244.32 184.59 270.55 162.24
  Q 274.82 158.60 281.11 153.97
  C 296.27 142.79 311.33 131.19 327.29 121.21
  Q 338.69 114.08 350.10 106.97
  Q 374.89 91.54 400.87 78.22
  C 426.61 65.02 453.54 54.07 480.85 44.57
  C 488.28 41.98 497.42 39.41 505.66 36.64
  Q 508.97 35.53 516.97 33.32
  C 525.32 31.01 533.28 28.01 542.80 25.83
  C 550.48 24.07 558.55 21.92 566.52 20.33
  C 570.64 19.50 575.89 18.06 580.75 17.36
  C 589.23 16.14 596.04 14.08 603.81 12.92
  Q 614.85 11.29 625.91 9.86
  Z
  M 588.62 197.66
  Q 587.16 197.86 585.74 198.26
  Q 563.64 204.55 542.20 212.82
  Q 526.77 218.78 511.44 225.00
  C 479.82 237.83 451.69 253.70 421.67 272.65
  Q 413.20 277.99 405.12 283.85
  C 382.06 300.56 363.04 316.71 341.62 336.98
  Q 334.25 343.96 327.57 351.20
  Q 305.80 374.81 285.75 399.89
  C 274.36 414.14 264.53 429.55 254.61 444.83
  C 240.74 466.18 231.21 484.92 220.65 507.68
  Q 216.05 517.58 212.70 526.02
  Q 199.77 558.60 192.36 587.03
  Q 186.45 609.73 185.14 615.56
  Q 179.44 640.99 176.52 676.00
  Q 173.74 709.28 175.23 747.01
  Q 175.62 756.90 176.77 766.94
  C 179.18 787.98 182.32 808.87 187.17 829.51
  Q 188.98 837.24 195.09 859.36
  C 204.40 893.13 217.95 924.03 232.94 955.13
  Q 236.07 961.62 240.12 968.95
  C 244.84 977.51 249.54 986.60 254.29 994.60
  Q 259.45 1003.31 261.58 1006.18
  C 266.06 1012.25 270.66 1019.67 274.31 1024.82
  Q 288.15 1044.35 303.28 1062.94
  A 1.07 1.07 0.0 0 0 303.59 1063.20
  Q 305.37 1064.28 305.72 1062.59
  Q 306.41 1059.21 306.29 1055.76
  C 305.73 1040.31 306.44 1022.18 306.54 1009.51
  C 306.82 971.91 306.45 934.34 306.49 896.75
  Q 306.59 818.88 306.49 741.00
  Q 306.44 705.81 307.68 663.25
  C 308.12 648.15 309.47 632.81 312.08 619.51
  Q 315.90 600.03 320.84 587.82
  C 325.99 575.12 331.42 561.56 338.44 550.72
  Q 344.86 540.79 354.83 527.98
  Q 357.34 524.75 360.58 521.41
  C 365.65 516.17 371.09 510.23 375.81 505.79
  Q 398.02 484.84 421.02 471.31
  Q 435.59 462.73 491.92 431.45
  Q 517.20 417.41 534.94 408.13
  C 552.24 399.08 569.00 389.81 586.70 380.84
  C 622.86 362.50 660.74 342.05 684.29 329.26
  C 702.14 319.56 716.41 308.45 728.96 292.96
  Q 740.22 279.06 752.16 265.73
  C 753.96 263.71 755.76 261.16 757.72 258.97
  C 773.29 241.67 788.08 223.76 803.42 206.27
  C 809.22 199.66 815.19 193.29 820.43 186.20
  A 1.47 1.47 0.0 0 0 819.99 184.05
  Q 819.10 183.52 817.73 183.32
  Q 795.01 180.03 772.12 178.65
  Q 763.78 178.15 752.13 177.92
  C 694.34 176.78 644.56 181.84 589.24 197.30
  Q 589.15 197.32 589.02 197.45
  Q 588.85 197.63 588.62 197.66
  Z"
/>
<path fill="#141213" d="
  M 868.39 1425.94
  C 860.83 1427.34 853.07 1429.17 845.82 1430.36
  Q 830.15 1432.93 814.50 1435.55
  Q 804.26 1437.27 779.84 1439.02
  C 770.10 1439.71 758.02 1441.38 747.50 1441.71
  Q 724.13 1442.45 700.75 1441.98
  C 687.49 1441.71 672.64 1440.26 661.19 1439.31
  Q 627.10 1436.50 590.51 1430.53
  C 582.71 1429.25 574.38 1427.18 568.14 1425.99
  C 549.23 1422.39 530.83 1417.16 512.30 1412.01
  Q 486.30 1404.80 461.08 1395.24
  C 454.64 1392.80 444.55 1388.27 435.77 1385.75
  Q 434.18 1385.29 433.02 1384.23
  Q 432.63 1383.88 432.85 1383.41
  C 435.17 1378.50 440.10 1377.07 444.03 1373.65
  Q 456.46 1362.85 463.30 1358.05
  Q 524.58 1315.00 541.52 1302.04
  Q 556.94 1290.25 572.71 1278.92
  C 581.83 1272.37 591.78 1265.44 591.73 1253.75
  C 591.59 1216.07 592.03 1178.42 592.01 1140.74
  Q 591.94 1030.62 591.99 920.50
  C 592.00 904.91 592.54 890.50 594.21 876.50
  Q 595.32 867.20 598.85 857.24
  C 600.71 851.96 601.83 846.81 604.03 841.99
  Q 607.10 835.28 610.41 828.68
  C 619.39 810.82 634.54 795.57 651.58 785.60
  C 660.07 780.63 669.27 775.71 678.88 771.06
  C 723.82 749.28 769.28 728.65 814.56 707.63
  Q 828.97 700.95 843.31 694.12
  Q 857.24 687.50 871.15 680.84
  Q 881.69 675.80 892.33 670.96
  Q 913.76 661.21 925.05 655.31
  Q 943.35 645.74 953.56 637.08
  C 961.95 629.98 971.00 621.50 977.53 612.29
  Q 983.37 604.07 987.88 595.09
  C 990.93 589.01 993.49 580.76 995.11 574.88
  C 997.74 565.33 998.63 555.84 998.87 544.96
  C 999.26 526.79 998.74 508.67 998.78 490.50
  Q 998.94 413.62 998.63 336.74
  C 998.53 312.25 998.83 287.75 998.75 263.25
  Q 998.71 253.47 998.13 244.19
  A 2.74 2.72 69.9 0 1 999.21 241.84
  L 1138.86 136.76
  A 1.48 1.47 40.3 0 1 1140.45 136.64
  C 1144.92 139.02 1148.34 142.86 1152.25 146.01
  Q 1166.33 157.32 1179.63 169.51
  C 1197.09 185.50 1214.70 201.16 1231.58 217.78
  C 1243.23 229.25 1254.22 242.01 1265.34 254.29
  C 1285.29 276.35 1299.20 295.27 1317.43 321.27
  Q 1335.93 347.65 1354.39 381.04
  Q 1359.03 389.44 1363.63 398.76
  Q 1378.26 428.37 1388.56 453.21
  C 1400.87 482.89 1411.29 516.84 1420.22 549.42
  C 1422.44 557.51 1424.03 565.80 1426.04 574.05
  Q 1427.46 579.86 1428.45 585.55
  C 1429.62 592.25 1431.30 599.23 1432.26 605.53
  C 1435.39 625.96 1437.49 644.39 1439.74 665.80
  Q 1440.86 676.41 1441.22 685.73
  C 1442.35 714.42 1442.74 744.12 1439.65 772.69
  C 1437.93 788.61 1436.54 804.49 1434.02 820.39
  C 1432.86 827.68 1432.10 835.13 1430.62 842.15
  Q 1427.66 856.19 1424.59 870.21
  Q 1416.25 908.38 1408.84 931.54
  Q 1398.88 962.67 1395.68 970.43
  Q 1389.80 984.68 1384.03 998.97
  C 1374.63 1022.23 1364.95 1043.28 1351.77 1067.23
  C 1342.34 1084.38 1331.33 1102.28 1321.44 1117.69
  C 1314.14 1129.08 1303.72 1143.36 1297.31 1152.43
  Q 1284.06 1171.17 1277.10 1179.09
  C 1257.52 1201.38 1239.49 1222.26 1216.72 1244.21
  C 1208.55 1252.09 1198.59 1260.74 1189.56 1269.08
  Q 1182.22 1275.87 1155.80 1296.30
  Q 1147.35 1302.83 1117.30 1323.31
  Q 1093.57 1339.47 1061.60 1356.74
  C 1051.55 1362.16 1040.29 1367.36 1029.59 1372.56
  C 1017.98 1378.19 1005.71 1383.15 993.74 1388.43
  Q 983.95 1392.74 954.24 1402.69
  Q 945.07 1405.75 935.15 1408.64
  C 907.95 1416.55 890.36 1421.86 868.39 1425.94
  Z
  M 956.30 999.95
  Q 939.86 1007.49 923.45 1015.10
  Q 902.55 1024.79 881.53 1034.24
  Q 867.60 1040.50 854.01 1047.46
  C 850.35 1049.33 845.68 1051.15 841.80 1053.04
  C 827.95 1059.76 813.01 1065.80 800.00 1072.40
  Q 785.40 1079.80 771.06 1087.69
  C 753.37 1097.42 737.11 1110.27 724.60 1126.06
  C 704.61 1151.31 684.46 1178.87 664.27 1205.25
  C 651.38 1222.08 637.13 1237.93 622.81 1253.61
  Q 621.76 1254.76 622.91 1255.80
  C 624.48 1257.21 629.91 1257.30 632.00 1257.39
  C 665.74 1258.73 700.86 1260.28 733.74 1257.97
  Q 788.25 1254.13 842.75 1239.08
  Q 859.02 1234.59 889.01 1224.63
  Q 893.87 1223.02 899.21 1220.87
  C 907.63 1217.49 916.43 1214.16 924.40 1210.64
  Q 944.83 1201.62 951.58 1198.56
  Q 985.68 1183.09 1018.81 1160.55
  C 1028.94 1153.67 1039.10 1146.86 1048.68 1139.32
  C 1066.20 1125.53 1083.77 1111.73 1099.85 1095.91
  Q 1128.38 1067.84 1145.32 1047.82
  Q 1165.87 1023.53 1172.41 1013.66
  C 1175.95 1008.33 1180.16 1002.86 1182.70 998.98
  Q 1199.68 973.00 1207.34 958.01
  Q 1224.66 924.12 1228.57 914.81
  C 1238.92 890.12 1246.62 870.02 1252.48 846.74
  Q 1257.83 825.47 1262.15 803.97
  Q 1263.21 798.69 1264.05 792.47
  C 1265.36 782.83 1266.96 772.39 1267.79 763.53
  C 1271.78 721.00 1270.26 681.62 1264.63 636.76
  Q 1263.80 630.10 1262.80 625.11
  C 1260.07 611.44 1257.58 597.79 1254.07 584.74
  Q 1246.54 556.71 1236.00 528.49
  C 1232.18 518.28 1227.08 507.50 1222.52 497.01
  C 1216.76 483.72 1210.09 473.40 1201.68 457.78
  Q 1192.44 440.63 1176.22 418.27
  C 1170.41 410.26 1163.12 401.37 1156.59 392.89
  C 1152.34 387.36 1147.57 381.77 1142.47 377.01
  Q 1139.85 374.57 1137.57 371.90
  A 1.14 1.13 36.8 0 0 1135.67 372.17
  Q 1135.10 373.43 1135.03 374.76
  Q 1134.68 381.34 1134.76 387.92
  C 1134.90 401.16 1134.67 412.82 1134.62 427.75
  Q 1134.44 481.12 1134.27 534.50
  C 1134.19 559.25 1134.44 583.99 1134.13 608.74
  Q 1134.00 619.56 1134.03 628.75
  Q 1134.29 698.62 1133.80 768.50
  Q 1133.60 798.57 1132.40 811.63
  Q 1130.79 829.12 1124.84 849.94
  Q 1121.96 860.04 1118.31 868.83
  Q 1112.03 883.95 1104.97 894.26
  Q 1093.44 911.09 1089.17 916.16
  Q 1065.39 944.39 1035.66 960.92
  C 1012.96 973.55 985.51 986.55 956.30 999.95
  Z"
/>
<path fill="#828282" d="
  M 589.02 197.45
  Q 589.15 197.32 589.24 197.30
  C 644.56 181.84 694.34 176.78 752.13 177.92
  Q 763.78 178.15 772.12 178.65
  Q 795.01 180.03 817.73 183.32
  Q 819.10 183.52 819.99 184.05
  A 1.47 1.47 0.0 0 1 820.43 186.20
  C 815.19 193.29 809.22 199.66 803.42 206.27
  C 788.08 223.76 773.29 241.67 757.72 258.97
  C 755.76 261.16 753.96 263.71 752.16 265.73
  Q 740.22 279.06 728.96 292.96
  C 716.41 308.45 702.14 319.56 684.29 329.26
  C 660.74 342.05 622.86 362.50 586.70 380.84
  C 569.00 389.81 552.24 399.08 534.94 408.13
  Q 517.20 417.41 491.92 431.45
  Q 435.59 462.73 421.02 471.31
  Q 398.02 484.84 375.81 505.79
  C 371.09 510.23 365.65 516.17 360.58 521.41
  Q 357.34 524.75 354.83 527.98
  Q 344.86 540.79 338.44 550.72
  C 331.42 561.56 325.99 575.12 320.84 587.82
  Q 315.90 600.03 312.08 619.51
  C 309.47 632.81 308.12 648.15 307.68 663.25
  Q 306.44 705.81 306.49 741.00
  Q 306.59 818.88 306.49 896.75
  C 306.45 934.34 306.82 971.91 306.54 1009.51
  C 306.44 1022.18 305.73 1040.31 306.29 1055.76
  Q 306.41 1059.21 305.72 1062.59
  Q 305.37 1064.28 303.59 1063.20
  A 1.07 1.07 0.0 0 1 303.28 1062.94
  Q 288.15 1044.35 274.31 1024.82
  C 270.66 1019.67 266.06 1012.25 261.58 1006.18
  Q 259.45 1003.31 254.29 994.60
  C 249.54 986.60 244.84 977.51 240.12 968.95
  Q 236.07 961.62 232.94 955.13
  C 217.95 924.03 204.40 893.13 195.09 859.36
  Q 188.98 837.24 187.17 829.51
  C 182.32 808.87 179.18 787.98 176.77 766.94
  Q 175.62 756.90 175.23 747.01
  Q 173.74 709.28 176.52 676.00
  Q 179.44 640.99 185.14 615.56
  Q 186.45 609.73 192.36 587.03
  Q 199.77 558.60 212.70 526.02
  Q 216.05 517.58 220.65 507.68
  C 231.21 484.92 240.74 466.18 254.61 444.83
  C 264.53 429.55 274.36 414.14 285.75 399.89
  Q 305.80 374.81 327.57 351.20
  Q 334.25 343.96 341.62 336.98
  C 363.04 316.71 382.06 300.56 405.12 283.85
  Q 413.20 277.99 421.67 272.65
  C 451.69 253.70 479.82 237.83 511.44 225.00
  Q 526.77 218.78 542.20 212.82
  Q 563.64 204.55 585.74 198.26
  Q 587.16 197.86 588.62 197.66
  Q 588.85 197.63 589.02 197.45
  Z"
/>
<path fill="#828282" d="
  M 956.30 999.95
  C 985.51 986.55 1012.96 973.55 1035.66 960.92
  Q 1065.39 944.39 1089.17 916.16
  Q 1093.44 911.09 1104.97 894.26
  Q 1112.03 883.95 1118.31 868.83
  Q 1121.96 860.04 1124.84 849.94
  Q 1130.79 829.12 1132.40 811.63
  Q 1133.60 798.57 1133.80 768.50
  Q 1134.29 698.62 1134.03 628.75
  Q 1134.00 619.56 1134.13 608.74
  C 1134.44 583.99 1134.19 559.25 1134.27 534.50
  Q 1134.44 481.12 1134.62 427.75
  C 1134.67 412.82 1134.90 401.16 1134.76 387.92
  Q 1134.68 381.34 1135.03 374.76
  Q 1135.10 373.43 1135.67 372.17
  A 1.14 1.13 36.8 0 1 1137.57 371.90
  Q 1139.85 374.57 1142.47 377.01
  C 1147.57 381.77 1152.34 387.36 1156.59 392.89
  C 1163.12 401.37 1170.41 410.26 1176.22 418.27
  Q 1192.44 440.63 1201.68 457.78
  C 1210.09 473.40 1216.76 483.72 1222.52 497.01
  C 1227.08 507.50 1232.18 518.28 1236.00 528.49
  Q 1246.54 556.71 1254.07 584.74
  C 1257.58 597.79 1260.07 611.44 1262.80 625.11
  Q 1263.80 630.10 1264.63 636.76
  C 1270.26 681.62 1271.78 721.00 1267.79 763.53
  C 1266.96 772.39 1265.36 782.83 1264.05 792.47
  Q 1263.21 798.69 1262.15 803.97
  Q 1257.83 825.47 1252.48 846.74
  C 1246.62 870.02 1238.92 890.12 1228.57 914.81
  Q 1224.66 924.12 1207.34 958.01
  Q 1199.68 973.00 1182.70 998.98
  C 1180.16 1002.86 1175.95 1008.33 1172.41 1013.66
  Q 1165.87 1023.53 1145.32 1047.82
  Q 1128.38 1067.84 1099.85 1095.91
  C 1083.77 1111.73 1066.20 1125.53 1048.68 1139.32
  C 1039.10 1146.86 1028.94 1153.67 1018.81 1160.55
  Q 985.68 1183.09 951.58 1198.56
  Q 944.83 1201.62 924.40 1210.64
  C 916.43 1214.16 907.63 1217.49 899.21 1220.87
  Q 893.87 1223.02 889.01 1224.63
  Q 859.02 1234.59 842.75 1239.08
  Q 788.25 1254.13 733.74 1257.97
  C 700.86 1260.28 665.74 1258.73 632.00 1257.39
  C 629.91 1257.30 624.48 1257.21 622.91 1255.80
  Q 621.76 1254.76 622.81 1253.61
  C 637.13 1237.93 651.38 1222.08 664.27 1205.25
  C 684.46 1178.87 704.61 1151.31 724.60 1126.06
  C 737.11 1110.27 753.37 1097.42 771.06 1087.69
  Q 785.40 1079.80 800.00 1072.40
  C 813.01 1065.80 827.95 1059.76 841.80 1053.04
  C 845.68 1051.15 850.35 1049.33 854.01 1047.46
  Q 867.60 1040.50 881.53 1034.24
  Q 902.55 1024.79 923.45 1015.10
  Q 939.86 1007.49 956.30 999.95
  Z"
/>
</svg>
