<?xml version="1.0" encoding="UTF-8" standalone="no"?>
<!DOCTYPE svg PUBLIC "-//W3C//DTD SVG 1.1//EN" "http://www.w3.org/Graphics/SVG/1.1/DTD/svg11.dtd">
<svg xmlns="http://www.w3.org/2000/svg" version="1.1" viewBox="0.00 0.00 1448.00 1448.00">
<g stroke-width="2.00" fill="none" stroke-linecap="butt">
<path stroke="#8b8a8b" vector-effect="non-scaling-stroke" d="
  M 789.12 1429.68
  C 789.45 1428.05 789.90 1426.54 789.90 1424.91
  Q 789.94 1382.58 790.27 1340.25
  C 790.78 1274.66 789.56 1209.08 790.77 1143.50
  C 791.09 1125.95 792.20 1107.49 795.06 1092.00
  C 799.50 1067.92 802.93 1052.54 810.09 1030.54
  Q 817.63 1007.39 833.83 981.05
  Q 843.98 964.54 857.41 948.16
  Q 885.06 914.41 925.25 898.44
  Q 935.82 894.24 954.52 888.10
  C 961.03 885.95 967.36 884.93 974.00 883.87
  A 0.56 0.56 0.0 0 1 974.59 884.68
  Q 973.99 885.88 972.77 886.72
  Q 964.88 892.21 957.21 897.99
  C 939.24 911.56 924.62 927.76 909.95 945.07
  C 889.46 969.24 872.90 997.27 860.34 1026.32
  C 857.57 1032.74 854.27 1038.67 851.22 1044.88
  A 0.80 0.79 6.2 0 0 852.13 1046.00
  C 858.94 1044.33 865.46 1040.63 871.08 1038.61
  Q 884.26 1033.88 891.99 1030.39
  Q 896.74 1028.25 901.60 1026.33
  C 924.45 1017.35 943.71 1004.67 961.51 992.02
  C 982.55 977.07 1002.60 957.68 1019.62 936.76
  Q 1029.32 924.85 1032.45 920.45
  C 1056.49 886.75 1075.96 845.97 1093.83 806.83
  Q 1099.83 793.66 1105.10 780.18
  C 1107.68 773.58 1112.04 767.63 1113.96 760.82
  A 0.81 0.81 0.0 0 0 1113.01 759.81
  Q 1109.96 760.46 1106.91 761.89
  C 1077.82 775.58 1050.14 783.89 1017.40 796.22
  Q 982.05 809.53 970.78 814.07
  Q 950.22 822.36 944.55 825.07
  Q 936.41 828.94 913.73 841.52
  C 893.48 852.75 876.24 865.14 858.06 879.79
  Q 845.07 890.24 833.37 902.12
  C 822.65 912.98 812.35 923.77 803.18 936.42
  C 792.41 951.26 782.59 966.02 774.53 982.19
  C 766.20 998.87 758.90 1015.99 753.91 1034.11
  C 748.53 1053.61 744.95 1072.31 742.23 1093.12
  C 740.58 1105.72 740.14 1117.45 740.00 1129.81
  Q 739.98 1131.65 738.48 1130.59
  C 735.94 1128.80 734.40 1125.16 732.75 1122.51
  Q 731.02 1119.72 729.29 1117.38
  C 705.97 1085.67 679.96 1055.16 649.79 1029.72
  C 623.63 1007.66 601.34 991.52 575.54 974.53
  Q 570.84 971.43 565.95 967.92
  C 559.41 963.22 551.99 958.40 546.09 954.22
  Q 527.07 940.73 508.02 927.27
  C 504.01 924.43 500.32 922.53 496.01 920.74
  Q 494.49 920.11 494.53 918.73
  A 1.04 1.03 -0.0 0 1 495.54 917.73
  Q 499.79 917.62 503.24 918.28
  C 522.18 921.89 538.85 925.29 559.19 931.71
  C 565.47 933.69 571.78 936.05 577.14 938.63
  C 599.98 949.65 622.30 963.75 642.09 981.09
  A 0.93 0.92 -68.0 0 0 643.62 980.44
  Q 643.67 979.58 643.23 978.24
  Q 640.35 969.38 637.45 960.51
  Q 635.60 954.86 627.36 939.15
  Q 619.40 923.99 603.45 905.30
  Q 591.62 891.44 573.45 876.22
  C 558.43 863.64 543.40 854.60 525.49 843.86
  Q 515.79 838.05 508.36 834.05
  Q 496.28 827.54 490.64 825.34
  C 474.36 818.99 458.17 811.89 441.81 806.14
  Q 413.43 796.15 384.98 786.34
  C 376.93 783.56 368.22 779.59 359.55 776.55
  Q 339.55 769.54 320.47 760.26
  A 0.63 0.63 0.0 0 0 319.59 760.66
  Q 319.44 761.20 319.67 761.86
  C 321.80 767.94 325.37 774.78 327.34 779.39
  C 342.77 815.42 357.01 844.19 376.59 877.17
  C 399.76 916.19 427.73 950.56 462.08 980.12
  Q 469.45 986.47 477.86 992.38
  C 503.30 1010.27 528.65 1023.99 557.14 1039.30
  C 572.97 1047.81 588.93 1057.11 603.42 1067.75
  C 609.37 1072.12 615.77 1077.72 621.90 1082.78
  C 637.02 1095.24 650.75 1109.51 663.76 1124.14
  C 672.15 1133.56 680.96 1145.17 689.57 1155.70
  Q 696.00 1163.57 708.29 1182.64
  Q 713.12 1190.13 718.76 1199.68
  C 725.86 1211.73 733.23 1223.52 738.91 1236.35
  Q 741.93 1243.19 741.74 1249.00
  Q 741.07 1268.97 741.37 1294.25
  Q 741.95 1345.22 741.22 1406.50
  Q 741.07 1419.03 741.82 1431.53
  Q 741.85 1432.02 742.19 1432.37
  Q 742.78 1432.98 742.82 1432.31"
/>
<path stroke="#4e4c4d" vector-effect="non-scaling-stroke" d="
  M 742.82 1432.31
  Q 743.71 1433.59 746.23 1433.01"
/>
<path stroke="#8b8a8b" vector-effect="non-scaling-stroke" d="
  M 694.00 1433.64
  Q 695.35 1429.12 695.28 1424.50
  C 694.33 1367.25 694.73 1310.00 695.43 1252.75
  C 695.51 1246.09 695.68 1241.30 692.00 1235.50
  C 684.33 1223.39 675.74 1212.09 666.99 1200.75
  C 660.85 1192.78 655.33 1184.09 649.45 1175.78
  Q 648.06 1173.81 646.19 1172.61
  A 0.49 0.49 0.0 0 0 645.44 1173.02
  C 645.37 1188.45 645.11 1203.93 645.33 1219.33
  C 645.49 1230.80 645.11 1242.44 645.15 1254.00
  Q 645.38 1327.38 645.11 1400.75
  Q 645.07 1411.59 645.67 1427.70"
/>
<path stroke="#c2c1c2" vector-effect="non-scaling-stroke" d="
  M 789.02 1429.85
  Q 788.25 1429.77 787.99 1430.59
  A 0.79 0.79 0.0 0 1 787.24 1431.13
  L 785.74 1431.13
  A 0.21 0.21 0.0 0 0 785.67 1431.53
  Q 786.51 1431.83 787.36 1431.59
  Q 787.44 1431.57 787.36 1431.57
  L 767.46 1431.16"
/>
<path stroke="#c2c1c2" vector-effect="non-scaling-stroke" d="
  M 755.97 1432.03
  L 742.82 1432.31"
/>
<path stroke="#c2c1c2" vector-effect="non-scaling-stroke" d="
  M 682.98 1436.22
  Q 678.43 1436.26 674.05 1435.39
  Q 673.98 1435.37 673.49 1435.36
  Q 673.11 1435.34 672.94 1434.98
  Q 672.89 1434.88 673.00 1434.87
  Q 673.14 1434.87 673.27 1434.87
  A 0.22 0.22 0.0 0 0 673.38 1434.46
  Q 670.56 1432.89 667.75 1432.58
  Q 666.94 1432.50 666.47 1432.03
  Q 666.11 1431.68 665.62 1431.60
  Q 660.17 1430.69 654.62 1430.61
  Q 653.83 1430.60 654.54 1430.94
  Q 655.41 1431.37 656.43 1431.12
  Q 656.56 1431.09 656.58 1431.22
  L 656.58 1431.23
  Q 656.60 1431.37 656.47 1431.37
  Q 654.60 1431.42 652.73 1431.36
  C 650.78 1431.30 649.01 1430.36 646.90 1430.12"
/>
<path stroke="#8b8a8b" vector-effect="non-scaling-stroke" d="
  M 715.85 252.31
  Q 717.18 252.48 717.41 254.27
  C 718.16 259.98 718.22 266.19 718.89 271.39
  C 726.77 333.04 739.86 394.68 746.19 453.25
  Q 747.07 461.41 748.60 485.68
  C 750.03 508.43 747.62 531.88 744.74 554.32
  C 743.75 562.09 742.02 570.03 740.46 577.89
  C 738.96 585.45 737.12 591.86 734.71 598.74
  Q 733.97 600.84 734.09 603.25
  A 0.54 0.54 0.0 0 0 734.75 603.75
  C 741.70 602.12 748.73 593.45 754.08 588.91
  C 780.33 566.66 800.97 542.63 817.48 512.76
  C 835.87 479.49 844.47 441.12 844.64 403.25
  Q 844.73 382.47 842.89 366.25
  C 839.18 333.49 830.05 300.16 817.01 268.74
  C 805.31 240.55 794.11 219.61 777.87 190.73
  C 764.91 167.68 751.42 144.94 738.54 121.83
  C 733.88 113.48 727.56 102.90 722.40 93.30
  Q 721.40 91.44 720.01 93.03
  Q 719.31 93.83 718.71 94.89
  Q 709.53 111.33 699.63 127.34
  C 687.34 147.22 676.13 167.84 664.49 188.11
  C 654.08 206.23 644.10 225.66 635.42 243.42
  Q 621.67 271.56 611.90 302.68
  C 609.96 308.86 608.53 315.64 606.89 322.19
  Q 604.93 329.96 603.64 336.93
  C 602.27 344.30 600.68 351.82 599.86 359.07
  C 597.96 376.11 597.82 390.42 597.85 409.75
  Q 597.89 431.93 603.20 453.44
  Q 617.11 509.84 653.68 554.82
  C 663.08 566.38 675.06 579.34 687.33 589.66
  C 692.58 594.07 697.44 598.81 703.10 602.74
  A 0.70 0.70 0.0 0 0 704.19 602.10
  Q 703.59 595.31 701.81 588.44
  Q 696.36 567.40 692.44 546.02
  C 690.99 538.09 690.18 529.55 689.18 521.28
  Q 687.88 510.55 687.48 502.65
  C 686.30 479.59 686.17 456.07 688.47 433.25
  Q 693.08 387.49 701.36 338.72
  Q 704.98 317.37 708.20 295.96
  Q 711.42 274.55 714.77 253.13
  A 0.97 0.97 0.0 0 1 715.85 252.31"
/>
<path stroke="#4e4c4d" vector-effect="non-scaling-stroke" d="
  M 496.84 187.55
  C 485.74 192.56 474.42 197.51 463.91 203.23
  C 430.38 221.48 400.98 240.42 372.97 266.21
  C 369.62 269.29 367.88 270.41 368.21 274.75
  Q 369.56 292.23 370.05 315.00
  Q 370.09 316.63 370.47 317.98
  A 1.20 1.20 0.0 0 0 372.48 318.49
  C 376.64 314.29 380.30 309.82 384.89 306.27
  Q 398.20 295.96 411.21 285.28
  C 421.66 276.69 432.64 269.22 443.49 261.28
  C 457.69 250.89 477.09 240.94 494.61 232.18
  Q 511.53 223.72 528.38 215.14
  C 531.52 213.54 539.14 211.86 539.74 208.01
  Q 540.84 200.96 541.62 190.87
  C 542.12 184.29 543.28 178.02 544.22 171.50
  A 1.15 1.14 -5.8 0 0 542.70 170.26
  Q 539.17 171.52 535.38 172.82
  C 522.33 177.33 509.45 181.85 496.84 187.55"
/>
<path stroke="#4e4c4d" vector-effect="non-scaling-stroke" d="
  M 1065.84 310.82
  C 1074.28 304.07 1079.96 294.32 1086.12 287.36
  Q 1089.29 283.77 1085.44 280.58
  Q 1059.35 258.98 1039.80 245.44
  C 1025.75 235.72 1006.65 223.36 989.28 214.51
  C 966.66 202.99 950.88 194.98 932.32 187.17
  C 924.78 183.99 916.36 182.01 908.69 178.91
  Q 904.14 177.07 899.55 175.32
  Q 897.50 174.53 897.22 177.01
  A 1.96 1.46 55.1 0 0 897.21 177.34
  Q 898.33 193.70 899.02 209.76
  C 899.21 214.34 901.34 216.65 905.51 218.54
  C 911.44 221.22 917.62 223.68 923.28 226.47
  Q 938.48 233.96 953.74 241.34
  C 972.20 250.27 994.25 263.61 1014.04 275.76
  Q 1039.98 291.67 1063.35 310.80
  A 1.98 1.97 45.4 0 0 1065.84 310.82"
/>
<path stroke="#4e4c4d" vector-effect="non-scaling-stroke" d="
  M 1255.93 532.54
  C 1259.28 526.11 1259.83 521.48 1257.30 514.47
  Q 1249.97 494.22 1239.28 475.55
  C 1237.98 473.29 1236.95 470.55 1235.63 468.14
  Q 1224.96 448.67 1213.08 429.91
  C 1210.77 426.26 1207.93 422.66 1205.81 419.21
  Q 1194.16 400.24 1189.64 393.60
  Q 1184.58 386.16 1169.15 365.61
  C 1154.05 345.50 1134.05 325.07 1115.41 305.53
  Q 1112.86 302.86 1110.13 305.34
  Q 1098.19 316.17 1086.52 327.50
  Q 1083.86 330.09 1086.63 332.36
  C 1088.56 333.93 1090.52 335.34 1092.25 337.11
  C 1112.59 357.93 1129.90 378.26 1148.59 401.41
  Q 1158.18 413.29 1168.26 431.37
  C 1169.83 434.19 1170.74 436.97 1172.54 439.75
  Q 1179.11 449.91 1185.83 459.98
  C 1201.76 483.85 1215.43 508.30 1227.74 533.91
  C 1230.57 539.80 1235.02 551.05 1239.74 559.28
  Q 1240.08 559.87 1240.26 559.92
  A 1.46 1.46 0.0 0 0 1241.92 559.19
  Q 1248.97 545.95 1255.93 532.54"
/>
<path stroke="#8b8a8b" vector-effect="non-scaling-stroke" d="
  M 266.16 442.70
  Q 268.94 446.96 270.50 453.26
  C 272.99 463.27 274.87 473.62 277.20 482.17
  C 289.32 526.62 303.02 566.16 327.69 606.58
  Q 343.17 631.94 362.29 654.74
  Q 367.27 660.67 372.32 666.53
  C 396.82 694.96 428.74 719.38 461.09 738.48
  C 473.03 745.54 486.67 751.93 499.68 758.20
  Q 517.21 766.63 534.86 774.80
  Q 551.57 782.53 567.85 791.12
  C 587.09 801.28 605.53 813.60 621.69 828.19
  C 642.30 846.79 662.25 867.99 677.91 890.99
  C 692.59 912.55 704.79 933.84 713.99 957.27
  Q 714.70 959.08 716.32 957.59
  A 2.25 2.19 -9.6 0 0 716.81 956.92
  C 720.20 949.64 722.98 942.35 726.77 935.16
  C 731.95 925.35 736.38 916.26 742.79 905.53
  C 748.88 895.35 758.31 881.94 766.84 871.53
  C 785.25 849.06 805.40 829.00 826.67 813.42
  C 842.76 801.62 861.52 791.41 882.02 781.41
  C 899.95 772.67 922.88 763.64 936.82 757.31
  C 975.05 739.97 1008.52 719.39 1036.69 692.94
  C 1044.67 685.45 1056.08 674.34 1064.34 664.94
  C 1098.47 626.09 1124.02 583.18 1140.89 533.95
  C 1150.43 506.14 1156.62 484.26 1162.39 456.03
  Q 1163.54 450.41 1165.88 445.17
  Q 1166.93 442.82 1166.79 440.55
  A 1.46 1.45 -14.5 0 0 1164.71 439.33
  C 1158.38 442.38 1152.43 444.69 1145.24 446.69
  C 1122.64 452.96 1100.09 459.41 1077.29 464.92
  Q 1049.61 471.62 1031.75 476.21
  Q 993.90 485.94 957.22 501.77
  C 914.91 520.04 881.43 547.86 850.62 581.52
  C 837.30 596.06 826.28 612.00 815.55 629.29
  C 806.88 643.26 799.34 659.76 793.16 674.40
  Q 787.90 686.86 782.27 707.96
  C 779.68 717.64 776.01 727.08 773.01 736.87
  A 1.08 1.08 0.0 0 0 774.37 738.21
  Q 775.96 737.68 777.47 736.23
  C 785.48 728.54 791.50 720.38 800.14 712.06
  C 808.62 703.90 816.01 695.88 823.77 687.62
  C 834.70 675.98 846.48 665.10 857.90 653.90
  Q 867.46 644.52 887.16 628.07
  Q 892.98 623.21 899.67 618.46
  C 912.51 609.33 923.31 601.95 939.23 593.47
  C 959.07 582.90 979.80 573.32 1001.11 566.11
  C 1016.79 560.79 1033.03 555.14 1049.24 550.37
  C 1056.02 548.37 1062.77 544.94 1069.80 544.23
  Q 1070.33 544.17 1070.52 544.67
  Q 1070.98 545.93 1069.87 546.86
  C 1063.87 551.92 1058.23 556.82 1052.87 562.90
  Q 1036.60 581.33 1019.69 599.18
  Q 1006.29 613.32 998.95 619.70
  C 985.25 631.59 971.83 643.70 957.06 654.30
  Q 937.12 668.61 916.15 681.36
  C 893.19 695.32 873.09 708.04 847.98 724.51
  Q 820.88 742.27 811.97 749.68
  C 802.98 757.15 792.99 764.99 785.01 772.14
  Q 770.64 785.00 757.37 798.99
  C 748.76 808.05 739.16 819.64 730.04 829.92
  C 726.98 833.37 724.53 837.15 721.86 840.97
  A 2.84 2.83 -44.9 0 1 717.20 840.97
  C 708.13 827.89 697.01 815.09 688.29 805.72
  Q 671.07 787.22 648.71 767.85
  C 640.05 760.35 630.22 752.95 620.81 745.69
  Q 610.41 737.65 586.53 721.13
  C 570.35 709.94 555.34 701.38 536.56 690.67
  C 493.32 666.00 451.76 635.39 418.45 599.30
  Q 400.94 580.32 394.56 571.94
  Q 385.24 559.68 375.45 547.78
  Q 374.45 546.57 374.39 545.21
  A 0.83 0.83 0.0 0 1 375.43 544.37
  C 381.85 546.09 387.88 549.32 393.49 551.14
  C 398.54 552.78 403.61 554.71 408.54 556.19
  C 447.58 567.90 485.95 582.27 521.15 603.36
  C 546.29 618.41 569.94 635.13 591.30 654.70
  C 608.74 670.69 628.22 689.50 646.12 707.62
  C 653.61 715.19 660.67 723.61 667.95 731.75
  Q 668.87 732.79 669.46 731.53
  Q 669.89 730.62 669.40 728.87
  Q 665.42 714.44 661.69 699.94
  C 656.01 677.88 647.40 656.82 636.47 636.83
  Q 629.85 624.71 627.42 620.82
  C 598.72 574.88 556.88 535.75 508.58 511.90
  Q 469.09 492.39 429.75 481.70
  Q 399.42 473.45 352.92 462.97
  C 331.83 458.21 311.11 452.02 290.20 446.59
  C 284.74 445.18 279.27 442.78 273.70 441.09"
/>
<path stroke="#4e4c4d" vector-effect="non-scaling-stroke" d="
  M 273.70 441.09
  Q 273.48 440.60 272.63 440.37
  A 0.22 0.22 0.0 0 1 272.54 439.98
  C 278.99 434.82 282.68 430.88 287.29 423.36
  Q 293.41 413.37 300.75 404.22
  Q 312.92 389.02 325.10 373.83
  Q 328.61 369.46 331.77 366.33
  C 336.33 361.80 335.43 358.75 334.48 352.07
  Q 332.74 339.80 330.28 327.65
  C 329.52 323.92 329.20 319.89 328.52 316.00
  Q 328.19 314.13 327.16 313.29
  Q 326.33 312.63 325.59 313.39
  C 317.87 321.36 309.78 329.37 302.86 337.57
  C 287.20 356.12 272.45 375.39 259.26 395.78
  C 251.85 407.24 244.78 416.87 238.08 427.75
  A 2.06 2.06 0.0 0 0 238.96 430.69
  C 245.31 433.66 252.15 435.86 258.70 438.51
  C 261.43 439.62 263.67 441.11 266.16 442.70"
/>
<path stroke="#c2c1c2" vector-effect="non-scaling-stroke" d="
  M 273.70 441.09
  Q 269.10 440.80 267.25 441.09
  Q 265.58 441.35 266.16 442.70"
/>
<path stroke="#4e4c4d" vector-effect="non-scaling-stroke" d="
  M 185.58 748.49
  C 184.04 727.52 184.31 710.01 185.13 688.52
  C 185.52 678.19 186.93 667.20 187.78 656.49
  Q 188.52 647.31 194.24 614.75
  Q 195.56 607.23 200.00 587.51
  C 202.84 574.89 206.95 560.89 210.17 547.47
  C 210.92 544.35 212.45 540.24 207.76 539.15
  C 197.37 536.75 187.76 529.94 178.90 524.25
  A 1.24 1.24 0.0 0 0 177.05 524.94
  Q 169.76 549.20 163.34 573.66
  C 160.17 585.77 157.50 598.67 154.73 611.25
  Q 150.83 629.00 148.35 657.40
  Q 147.58 666.28 146.85 675.17
  C 144.79 700.16 144.95 725.67 146.63 750.11
  C 147.32 760.23 148.41 774.98 150.18 786.74
  Q 153.91 811.38 159.46 835.69
  C 161.10 842.87 163.45 851.08 165.38 858.82
  Q 166.71 864.14 168.00 868.10
  C 169.34 872.20 170.50 876.84 172.67 880.57
  C 174.25 883.29 176.37 883.38 179.26 883.70
  Q 195.95 885.53 212.22 886.41
  A 1.47 1.47 0.0 0 0 213.67 884.41
  C 206.85 866.77 202.65 848.20 197.87 829.95
  C 190.91 803.36 187.66 776.75 185.58 748.49"
/>
<path stroke="#4e4c4d" vector-effect="non-scaling-stroke" d="
  M 1265.02 542.02
  C 1261.62 552.57 1255.29 563.63 1252.04 571.75
  Q 1248.90 579.60 1251.11 588.50
  C 1253.49 598.11 1256.45 611.43 1258.48 623.60
  C 1259.95 632.46 1261.82 641.73 1262.80 650.19
  Q 1268.19 696.51 1264.83 743.03
  C 1263.38 762.95 1260.35 782.58 1257.06 802.37
  Q 1255.03 814.61 1253.43 822.02
  Q 1246.94 852.10 1236.77 881.17
  Q 1231.80 895.40 1226.38 909.48
  C 1225.47 911.86 1222.83 918.39 1225.48 920.25
  Q 1227.43 921.61 1232.05 924.23
  Q 1241.75 929.74 1249.86 937.34
  C 1252.29 939.61 1254.79 941.73 1257.13 937.86
  Q 1258.88 934.95 1259.39 933.63
  Q 1266.55 915.01 1273.61 896.36
  Q 1282.73 872.25 1290.24 839.90
  C 1291.42 834.82 1292.44 828.78 1293.65 823.23
  C 1305.40 768.94 1306.92 710.53 1301.84 653.98
  C 1300.77 642.03 1298.66 629.49 1296.78 617.25
  C 1294.35 601.49 1288.68 583.11 1283.67 565.77
  C 1280.82 555.91 1275.36 543.98 1271.46 531.15
  Q 1270.94 529.44 1269.51 531.11
  A 2.43 2.32 -13.9 0 0 1269.18 531.63
  Q 1266.74 536.70 1265.02 542.02"
/>
<path stroke="#4e4c4d" vector-effect="non-scaling-stroke" d="
  M 548.95 1233.84
  C 548.67 1228.54 548.94 1226.36 543.23 1224.25
  C 537.92 1222.28 532.46 1220.54 527.42 1218.20
  Q 497.92 1204.52 469.52 1188.67
  C 386.73 1142.48 325.24 1079.86 275.95 1004.46
  C 269.73 994.94 263.64 983.90 257.56 973.58
  C 255.00 969.25 252.38 966.50 247.50 966.19
  Q 236.10 965.44 217.75 965.51
  Q 215.19 965.52 212.90 965.80
  A 1.33 1.32 72.0 0 0 211.91 967.76
  Q 214.96 973.28 217.46 978.80
  C 232.56 1012.15 252.32 1041.59 275.17 1071.85
  C 306.47 1113.29 344.57 1149.85 386.26 1181.26
  C 391.50 1185.21 397.90 1189.45 403.66 1193.64
  C 438.64 1219.03 474.19 1237.98 514.05 1253.89
  C 523.79 1257.77 535.54 1261.08 546.23 1265.03
  C 549.74 1266.32 550.03 1263.99 549.98 1261.50
  Q 549.70 1247.66 548.95 1233.84"
/>
<path stroke="#4e4c4d" vector-effect="non-scaling-stroke" d="
  M 1186.86 987.47
  C 1186.35 986.57 1185.96 984.89 1184.71 984.10
  A 1.01 1.01 0.0 0 0 1183.31 984.43
  C 1178.28 992.59 1171.56 1000.75 1166.87 1007.78
  C 1158.11 1020.91 1148.75 1033.14 1138.92 1045.54
  C 1131.57 1054.80 1123.50 1063.84 1115.64 1072.90
  Q 1113.32 1075.58 1114.04 1078.50
  Q 1116.25 1087.51 1122.56 1109.59
  C 1123.57 1113.13 1125.03 1117.02 1126.15 1120.78
  A 0.49 0.49 0.0 0 0 1126.96 1120.99
  Q 1137.83 1110.53 1147.50 1098.74
  C 1159.71 1083.85 1171.87 1068.94 1183.44 1053.47
  Q 1193.23 1040.37 1203.06 1027.31
  Q 1205.56 1023.99 1203.50 1019.76
  Q 1198.21 1008.86 1194.87 1002.74
  C 1192.11 997.66 1189.72 992.46 1186.86 987.47"
/>
<path stroke="#4e4c4d" vector-effect="non-scaling-stroke" d="
  M 894.32 1246.71
  Q 893.18 1253.12 891.89 1259.89
  A 1.56 1.55 9.3 0 0 893.22 1261.72
  Q 894.11 1261.83 895.41 1261.41
  Q 908.91 1257.07 922.47 1252.93
  Q 931.99 1250.02 935.26 1248.70
  C 944.14 1245.10 953.66 1241.67 961.87 1237.96
  Q 994.83 1223.05 1025.70 1204.23
  C 1040.10 1195.44 1054.36 1184.98 1068.43 1175.12
  C 1079.17 1167.59 1087.91 1160.68 1097.00 1152.50
  C 1100.40 1149.43 1096.67 1143.85 1094.30 1139.39
  C 1090.08 1131.47 1086.26 1122.97 1081.29 1115.51
  A 1.31 1.30 51.8 0 0 1079.32 1115.27
  Q 1058.26 1134.63 1034.34 1150.85
  Q 1005.49 1170.40 991.95 1177.71
  Q 974.07 1187.37 956.06 1196.80
  C 948.78 1200.61 941.11 1203.57 933.62 1206.94
  C 922.73 1211.83 912.96 1215.68 902.50 1219.81
  C 898.26 1221.49 896.54 1223.39 896.23 1228.22
  C 895.83 1234.47 895.43 1240.47 894.32 1246.71"
/>
<path stroke="#c2c1c2" vector-effect="non-scaling-stroke" d="
  M 668.26 1433.58
  C 669.39 1433.79 670.81 1434.46 672.12 1434.64
  A 0.02 0.01 -30.1 0 0 672.13 1434.61
  Q 666.67 1432.56 660.88 1431.83
  Q 660.87 1431.87 660.89 1431.79
  Q 660.90 1431.77 660.93 1431.78
  Q 664.55 1432.88 668.26 1433.58"
/>
</g>
<path fill="#171516" d="
  M 789.12 1429.68
  C 789.45 1428.05 789.90 1426.54 789.90 1424.91
  Q 789.94 1382.58 790.27 1340.25
  C 790.78 1274.66 789.56 1209.08 790.77 1143.50
  C 791.09 1125.95 792.20 1107.49 795.06 1092.00
  C 799.50 1067.92 802.93 1052.54 810.09 1030.54
  Q 817.63 1007.39 833.83 981.05
  Q 843.98 964.54 857.41 948.16
  Q 885.06 914.41 925.25 898.44
  Q 935.82 894.24 954.52 888.10
  C 961.03 885.95 967.36 884.93 974.00 883.87
  A 0.56 0.56 0.0 0 1 974.59 884.68
  Q 973.99 885.88 972.77 886.72
  Q 964.88 892.21 957.21 897.99
  C 939.24 911.56 924.62 927.76 909.95 945.07
  C 889.46 969.24 872.90 997.27 860.34 1026.32
  C 857.57 1032.74 854.27 1038.67 851.22 1044.88
  A 0.80 0.79 6.2 0 0 852.13 1046.00
  C 858.94 1044.33 865.46 1040.63 871.08 1038.61
  Q 884.26 1033.88 891.99 1030.39
  Q 896.74 1028.25 901.60 1026.33
  C 924.45 1017.35 943.71 1004.67 961.51 992.02
  C 982.55 977.07 1002.60 957.68 1019.62 936.76
  Q 1029.32 924.85 1032.45 920.45
  C 1056.49 886.75 1075.96 845.97 1093.83 806.83
  Q 1099.83 793.66 1105.10 780.18
  C 1107.68 773.58 1112.04 767.63 1113.96 760.82
  A 0.81 0.81 0.0 0 0 1113.01 759.81
  Q 1109.96 760.46 1106.91 761.89
  C 1077.82 775.58 1050.14 783.89 1017.40 796.22
  Q 982.05 809.53 970.78 814.07
  Q 950.22 822.36 944.55 825.07
  Q 936.41 828.94 913.73 841.52
  C 893.48 852.75 876.24 865.14 858.06 879.79
  Q 845.07 890.24 833.37 902.12
  C 822.65 912.98 812.35 923.77 803.18 936.42
  C 792.41 951.26 782.59 966.02 774.53 982.19
  C 766.20 998.87 758.90 1015.99 753.91 1034.11
  C 748.53 1053.61 744.95 1072.31 742.23 1093.12
  C 740.58 1105.72 740.14 1117.45 740.00 1129.81
  Q 739.98 1131.65 738.48 1130.59
  C 735.94 1128.80 734.40 1125.16 732.75 1122.51
  Q 731.02 1119.72 729.29 1117.38
  C 705.97 1085.67 679.96 1055.16 649.79 1029.72
  C 623.63 1007.66 601.34 991.52 575.54 974.53
  Q 570.84 971.43 565.95 967.92
  C 559.41 963.22 551.99 958.40 546.09 954.22
  Q 527.07 940.73 508.02 927.27
  C 504.01 924.43 500.32 922.53 496.01 920.74
  Q 494.49 920.11 494.53 918.73
  A 1.04 1.03 -0.0 0 1 495.54 917.73
  Q 499.79 917.62 503.24 918.28
  C 522.18 921.89 538.85 925.29 559.19 931.71
  C 565.47 933.69 571.78 936.05 577.14 938.63
  C 599.98 949.65 622.30 963.75 642.09 981.09
  A 0.93 0.92 -68.0 0 0 643.62 980.44
  Q 643.67 979.58 643.23 978.24
  Q 640.35 969.38 637.45 960.51
  Q 635.60 954.86 627.36 939.15
  Q 619.40 923.99 603.45 905.30
  Q 591.62 891.44 573.45 876.22
  C 558.43 863.64 543.40 854.60 525.49 843.86
  Q 515.79 838.05 508.36 834.05
  Q 496.28 827.54 490.64 825.34
  C 474.36 818.99 458.17 811.89 441.81 806.14
  Q 413.43 796.15 384.98 786.34
  C 376.93 783.56 368.22 779.59 359.55 776.55
  Q 339.55 769.54 320.47 760.26
  A 0.63 0.63 0.0 0 0 319.59 760.66
  Q 319.44 761.20 319.67 761.86
  C 321.80 767.94 325.37 774.78 327.34 779.39
  C 342.77 815.42 357.01 844.19 376.59 877.17
  C 399.76 916.19 427.73 950.56 462.08 980.12
  Q 469.45 986.47 477.86 992.38
  C 503.30 1010.27 528.65 1023.99 557.14 1039.30
  C 572.97 1047.81 588.93 1057.11 603.42 1067.75
  C 609.37 1072.12 615.77 1077.72 621.90 1082.78
  C 637.02 1095.24 650.75 1109.51 663.76 1124.14
  C 672.15 1133.56 680.96 1145.17 689.57 1155.70
  Q 696.00 1163.57 708.29 1182.64
  Q 713.12 1190.13 718.76 1199.68
  C 725.86 1211.73 733.23 1223.52 738.91 1236.35
  Q 741.93 1243.19 741.74 1249.00
  Q 741.07 1268.97 741.37 1294.25
  Q 741.95 1345.22 741.22 1406.50
  Q 741.07 1419.03 741.82 1431.53
  Q 741.85 1432.02 742.19 1432.37
  Q 742.78 1432.98 742.82 1432.31
  Q 743.71 1433.59 746.23 1433.01
  Q 744.14 1433.16 742.08 1433.38
  C 739.28 1433.66 736.24 1435.10 733.50 1435.17
  C 724.02 1435.44 714.52 1435.48 705.05 1436.03
  Q 701.45 1436.24 697.86 1435.72
  Q 697.36 1435.65 697.03 1435.28
  Q 696.16 1434.31 694.87 1434.19
  Q 694.36 1434.15 694.23 1434.64
  Q 693.44 1437.62 690.48 1438.73
  Q 690.40 1438.87 690.29 1438.89
  Q 689.85 1438.98 690.28 1438.78
  Q 690.55 1438.66 690.76 1438.46
  Q 691.26 1438.01 690.59 1438.07
  Q 688.97 1438.20 687.38 1438.12
  Q 687.37 1438.13 687.39 1438.12
  Q 690.16 1438.40 692.71 1436.20
  Q 693.30 1435.69 693.30 1435.15
  A 0.74 0.73 71.2 0 1 693.58 1434.57
  Q 694.19 1434.08 694.00 1433.64
  Q 695.35 1429.12 695.28 1424.50
  C 694.33 1367.25 694.73 1310.00 695.43 1252.75
  C 695.51 1246.09 695.68 1241.30 692.00 1235.50
  C 684.33 1223.39 675.74 1212.09 666.99 1200.75
  C 660.85 1192.78 655.33 1184.09 649.45 1175.78
  Q 648.06 1173.81 646.19 1172.61
  A 0.49 0.49 0.0 0 0 645.44 1173.02
  C 645.37 1188.45 645.11 1203.93 645.33 1219.33
  C 645.49 1230.80 645.11 1242.44 645.15 1254.00
  Q 645.38 1327.38 645.11 1400.75
  Q 645.07 1411.59 645.67 1427.70
  Q 646.02 1428.63 645.84 1429.53
  Q 645.75 1430.01 645.26 1429.93
  Q 644.64 1429.82 644.37 1430.24
  Q 643.37 1431.79 642.12 1433.12
  Q 641.77 1433.50 641.26 1433.44
  C 628.11 1432.02 614.61 1430.69 601.99 1428.60
  Q 568.50 1423.04 535.65 1414.39
  Q 532.08 1413.45 528.48 1412.55
  Q 515.74 1409.38 503.25 1405.29
  Q 472.05 1395.09 458.31 1389.39
  C 446.66 1384.57 434.29 1379.78 423.39 1374.93
  Q 404.74 1366.63 398.53 1363.13
  C 391.16 1358.97 383.37 1355.42 376.19 1350.97
  C 373.62 1349.38 370.63 1348.05 368.31 1346.67
  C 356.38 1339.59 344.15 1332.59 332.77 1324.65
  C 330.07 1322.76 326.97 1321.16 324.48 1319.39
  Q 315.22 1312.82 306.05 1306.16
  Q 301.35 1302.75 296.58 1299.46
  Q 291.19 1295.74 287.20 1292.64
  C 274.61 1282.84 262.22 1273.35 250.25 1262.37
  Q 238.87 1251.92 227.27 1241.72
  Q 221.63 1236.75 207.00 1220.76
  Q 196.29 1209.03 185.51 1197.36
  C 175.55 1186.57 166.69 1174.94 157.47 1163.52
  Q 154.51 1159.87 149.48 1152.68
  C 146.03 1147.74 141.97 1142.98 138.78 1138.22
  C 134.28 1131.50 129.47 1124.98 125.27 1118.07
  C 123.83 1115.70 121.87 1113.37 120.54 1111.33
  C 115.12 1103.04 109.59 1094.84 104.67 1086.24
  Q 103.20 1083.66 100.87 1080.13
  Q 94.46 1070.42 80.99 1043.53
  Q 70.98 1023.55 61.75 1003.21
  C 57.36 993.54 53.60 982.78 49.54 972.52
  C 47.82 968.19 46.73 963.73 44.96 959.42
  C 42.49 953.45 40.17 945.26 38.80 941.14
  C 35.87 932.38 33.01 923.69 30.87 914.69
  C 29.95 910.83 28.38 906.77 27.49 903.40
  C 26.01 897.80 24.84 892.29 23.08 886.75
  Q 22.44 884.73 22.11 883.21
  Q 19.75 872.27 17.40 861.33
  C 15.50 852.52 14.22 843.03 12.58 833.87
  Q 11.41 827.34 10.41 819.07
  C 8.31 801.68 5.72 785.35 4.85 768.22
  C 2.68 725.63 2.92 682.96 7.41 643.26
  Q 9.34 626.22 13.65 601.72
  C 15.15 593.16 16.61 580.36 19.06 569.81
  C 20.40 564.10 21.28 557.76 22.74 552.75
  Q 25.53 543.14 27.81 533.40
  C 28.61 530.00 30.07 526.93 30.84 523.58
  C 32.48 516.46 35.44 508.38 37.20 502.87
  C 39.78 494.82 42.15 487.34 45.36 478.90
  C 50.12 466.37 53.97 453.47 59.91 441.25
  C 62.37 436.18 64.57 430.33 66.65 425.83
  C 72.89 412.37 78.99 398.62 86.05 385.75
  Q 99.90 360.50 112.29 340.51
  C 150.81 278.38 198.14 223.17 252.96 174.82
  C 260.12 168.50 269.90 160.89 278.12 153.62
  Q 284.39 148.09 305.95 133.32
  C 310.54 130.17 315.58 126.12 320.25 123.05
  C 335.65 112.90 355.22 100.41 372.38 91.14
  C 389.34 81.98 406.22 73.16 423.11 65.73
  C 436.80 59.70 447.23 55.73 458.20 51.30
  Q 464.26 48.85 467.33 47.77
  C 483.97 41.93 500.71 36.00 517.77 31.46
  C 523.83 29.85 529.99 27.74 535.80 26.37
  C 552.57 22.42 569.05 18.17 586.41 15.71
  C 596.49 14.27 606.89 12.31 616.57 11.17
  Q 636.30 8.85 656.02 6.58
  C 661.49 5.95 666.81 5.30 672.35 5.02
  C 715.68 2.83 761.32 2.57 806.18 8.91
  C 813.18 9.90 821.75 10.71 829.50 12.00
  Q 845.29 14.62 861.08 17.18
  C 880.21 20.27 898.76 26.24 917.55 30.82
  C 926.29 32.95 934.57 35.80 944.01 38.71
  C 963.99 44.85 983.54 53.06 1003.12 60.68
  Q 1012.92 64.49 1021.56 68.44
  C 1042.39 77.95 1054.53 84.02 1073.98 94.93
  C 1095.69 107.11 1116.52 120.69 1137.36 134.29
  Q 1142.03 137.34 1146.46 140.72
  C 1161.92 152.54 1177.81 163.46 1189.94 174.31
  C 1208.74 191.11 1226.41 206.37 1245.04 225.96
  Q 1272.03 254.34 1278.19 262.31
  Q 1287.47 274.30 1296.89 286.17
  C 1301.34 291.79 1305.72 298.39 1310.57 304.92
  Q 1320.43 318.20 1334.40 340.75
  Q 1352.48 369.93 1356.81 377.67
  C 1363.21 389.10 1368.88 400.75 1374.64 412.50
  C 1379.68 422.78 1384.21 433.52 1388.96 444.06
  Q 1393.56 454.30 1396.62 462.10
  Q 1408.80 493.16 1415.08 515.99
  C 1419.09 530.55 1423.68 544.44 1426.69 558.92
  Q 1428.73 568.74 1431.07 578.49
  C 1432.24 583.34 1432.95 590.17 1434.17 596.13
  Q 1436.43 607.12 1437.77 618.27
  C 1438.84 627.16 1440.34 634.78 1441.03 643.06
  C 1442.14 656.52 1443.56 670.40 1444.02 683.37
  C 1444.99 710.49 1445.35 738.15 1442.76 765.19
  C 1440.36 790.37 1438.51 815.03 1433.90 839.60
  C 1429.63 862.41 1425.84 878.60 1421.98 894.04
  C 1420.01 901.91 1417.92 908.71 1416.00 916.09
  C 1414.55 921.64 1412.25 927.68 1410.76 933.64
  C 1409.28 939.55 1407.03 944.95 1405.37 950.74
  C 1404.32 954.38 1402.66 957.49 1401.58 960.98
  C 1400.04 965.95 1397.38 972.03 1396.06 975.43
  Q 1392.84 983.73 1389.32 991.91
  Q 1387.31 996.58 1385.42 1001.30
  C 1382.49 1008.59 1379.09 1015.47 1375.92 1022.56
  Q 1372.82 1029.51 1370.38 1034.44
  C 1357.86 1059.69 1347.27 1078.18 1334.29 1099.06
  C 1324.28 1115.18 1313.23 1132.08 1303.43 1145.19
  C 1291.77 1160.80 1277.79 1177.07 1264.78 1192.86
  C 1258.69 1200.26 1252.12 1206.98 1244.94 1214.70
  Q 1222.49 1238.86 1196.29 1260.58
  C 1188.33 1267.18 1180.23 1274.64 1173.57 1279.82
  Q 1153.32 1295.59 1132.19 1310.17
  C 1129.99 1311.69 1127.51 1312.97 1125.44 1314.47
  Q 1117.91 1319.89 1106.06 1327.29
  Q 1077.92 1344.85 1053.24 1357.54
  C 1025.62 1371.74 994.92 1384.62 963.66 1395.88
  C 944.51 1402.77 923.81 1408.56 905.90 1413.58
  C 897.84 1415.85 889.98 1417.21 882.02 1419.15
  Q 876.83 1420.42 870.40 1421.66
  C 865.18 1422.68 859.81 1424.04 854.83 1424.91
  Q 839.64 1427.57 824.48 1430.39
  Q 817.01 1431.78 807.76 1431.94
  C 803.08 1432.02 798.40 1432.97 793.53 1433.18
  A 1.94 1.93 77.8 0 1 791.65 1431.96
  L 790.65 1429.49
  Q 790.53 1429.21 790.25 1429.31
  L 789.12 1429.68
  Z
  M 715.85 252.31
  Q 717.18 252.48 717.41 254.27
  C 718.16 259.98 718.22 266.19 718.89 271.39
  C 726.77 333.04 739.86 394.68 746.19 453.25
  Q 747.07 461.41 748.60 485.68
  C 750.03 508.43 747.62 531.88 744.74 554.32
  C 743.75 562.09 742.02 570.03 740.46 577.89
  C 738.96 585.45 737.12 591.86 734.71 598.74
  Q 733.97 600.84 734.09 603.25
  A 0.54 0.54 0.0 0 0 734.75 603.75
  C 741.70 602.12 748.73 593.45 754.08 588.91
  C 780.33 566.66 800.97 542.63 817.48 512.76
  C 835.87 479.49 844.47 441.12 844.64 403.25
  Q 844.73 382.47 842.89 366.25
  C 839.18 333.49 830.05 300.16 817.01 268.74
  C 805.31 240.55 794.11 219.61 777.87 190.73
  C 764.91 167.68 751.42 144.94 738.54 121.83
  C 733.88 113.48 727.56 102.90 722.40 93.30
  Q 721.40 91.44 720.01 93.03
  Q 719.31 93.83 718.71 94.89
  Q 709.53 111.33 699.63 127.34
  C 687.34 147.22 676.13 167.84 664.49 188.11
  C 654.08 206.23 644.10 225.66 635.42 243.42
  Q 621.67 271.56 611.90 302.68
  C 609.96 308.86 608.53 315.64 606.89 322.19
  Q 604.93 329.96 603.64 336.93
  C 602.27 344.30 600.68 351.82 599.86 359.07
  C 597.96 376.11 597.82 390.42 597.85 409.75
  Q 597.89 431.93 603.20 453.44
  Q 617.11 509.84 653.68 554.82
  C 663.08 566.38 675.06 579.34 687.33 589.66
  C 692.58 594.07 697.44 598.81 703.10 602.74
  A 0.70 0.70 0.0 0 0 704.19 602.10
  Q 703.59 595.31 701.81 588.44
  Q 696.36 567.40 692.44 546.02
  C 690.99 538.09 690.18 529.55 689.18 521.28
  Q 687.88 510.55 687.48 502.65
  C 686.30 479.59 686.17 456.07 688.47 433.25
  Q 693.08 387.49 701.36 338.72
  Q 704.98 317.37 708.20 295.96
  Q 711.42 274.55 714.77 253.13
  A 0.97 0.97 0.0 0 1 715.85 252.31
  Z
  M 496.84 187.55
  C 485.74 192.56 474.42 197.51 463.91 203.23
  C 430.38 221.48 400.98 240.42 372.97 266.21
  C 369.62 269.29 367.88 270.41 368.21 274.75
  Q 369.56 292.23 370.05 315.00
  Q 370.09 316.63 370.47 317.98
  A 1.20 1.20 0.0 0 0 372.48 318.49
  C 376.64 314.29 380.30 309.82 384.89 306.27
  Q 398.20 295.96 411.21 285.28
  C 421.66 276.69 432.64 269.22 443.49 261.28
  C 457.69 250.89 477.09 240.94 494.61 232.18
  Q 511.53 223.72 528.38 215.14
  C 531.52 213.54 539.14 211.86 539.74 208.01
  Q 540.84 200.96 541.62 190.87
  C 542.12 184.29 543.28 178.02 544.22 171.50
  A 1.15 1.14 -5.8 0 0 542.70 170.26
  Q 539.17 171.52 535.38 172.82
  C 522.33 177.33 509.45 181.85 496.84 187.55
  Z
  M 1065.84 310.82
  C 1074.28 304.07 1079.96 294.32 1086.12 287.36
  Q 1089.29 283.77 1085.44 280.58
  Q 1059.35 258.98 1039.80 245.44
  C 1025.75 235.72 1006.65 223.36 989.28 214.51
  C 966.66 202.99 950.88 194.98 932.32 187.17
  C 924.78 183.99 916.36 182.01 908.69 178.91
  Q 904.14 177.07 899.55 175.32
  Q 897.50 174.53 897.22 177.01
  A 1.96 1.46 55.1 0 0 897.21 177.34
  Q 898.33 193.70 899.02 209.76
  C 899.21 214.34 901.34 216.65 905.51 218.54
  C 911.44 221.22 917.62 223.68 923.28 226.47
  Q 938.48 233.96 953.74 241.34
  C 972.20 250.27 994.25 263.61 1014.04 275.76
  Q 1039.98 291.67 1063.35 310.80
  A 1.98 1.97 45.4 0 0 1065.84 310.82
  Z
  M 1255.93 532.54
  C 1259.28 526.11 1259.83 521.48 1257.30 514.47
  Q 1249.97 494.22 1239.28 475.55
  C 1237.98 473.29 1236.95 470.55 1235.63 468.14
  Q 1224.96 448.67 1213.08 429.91
  C 1210.77 426.26 1207.93 422.66 1205.81 419.21
  Q 1194.16 400.24 1189.64 393.60
  Q 1184.58 386.16 1169.15 365.61
  C 1154.05 345.50 1134.05 325.07 1115.41 305.53
  Q 1112.86 302.86 1110.13 305.34
  Q 1098.19 316.17 1086.52 327.50
  Q 1083.86 330.09 1086.63 332.36
  C 1088.56 333.93 1090.52 335.34 1092.25 337.11
  C 1112.59 357.93 1129.90 378.26 1148.59 401.41
  Q 1158.18 413.29 1168.26 431.37
  C 1169.83 434.19 1170.74 436.97 1172.54 439.75
  Q 1179.11 449.91 1185.83 459.98
  C 1201.76 483.85 1215.43 508.30 1227.74 533.91
  C 1230.57 539.80 1235.02 551.05 1239.74 559.28
  Q 1240.08 559.87 1240.26 559.92
  A 1.46 1.46 0.0 0 0 1241.92 559.19
  Q 1248.97 545.95 1255.93 532.54
  Z
  M 266.16 442.70
  Q 268.94 446.96 270.50 453.26
  C 272.99 463.27 274.87 473.62 277.20 482.17
  C 289.32 526.62 303.02 566.16 327.69 606.58
  Q 343.17 631.94 362.29 654.74
  Q 367.27 660.67 372.32 666.53
  C 396.82 694.96 428.74 719.38 461.09 738.48
  C 473.03 745.54 486.67 751.93 499.68 758.20
  Q 517.21 766.63 534.86 774.80
  Q 551.57 782.53 567.85 791.12
  C 587.09 801.28 605.53 813.60 621.69 828.19
  C 642.30 846.79 662.25 867.99 677.91 890.99
  C 692.59 912.55 704.79 933.84 713.99 957.27
  Q 714.70 959.08 716.32 957.59
  A 2.25 2.19 -9.6 0 0 716.81 956.92
  C 720.20 949.64 722.98 942.35 726.77 935.16
  C 731.95 925.35 736.38 916.26 742.79 905.53
  C 748.88 895.35 758.31 881.94 766.84 871.53
  C 785.25 849.06 805.40 829.00 826.67 813.42
  C 842.76 801.62 861.52 791.41 882.02 781.41
  C 899.95 772.67 922.88 763.64 936.82 757.31
  C 975.05 739.97 1008.52 719.39 1036.69 692.94
  C 1044.67 685.45 1056.08 674.34 1064.34 664.94
  C 1098.47 626.09 1124.02 583.18 1140.89 533.95
  C 1150.43 506.14 1156.62 484.26 1162.39 456.03
  Q 1163.54 450.41 1165.88 445.17
  Q 1166.93 442.82 1166.79 440.55
  A 1.46 1.45 -14.5 0 0 1164.71 439.33
  C 1158.38 442.38 1152.43 444.69 1145.24 446.69
  C 1122.64 452.96 1100.09 459.41 1077.29 464.92
  Q 1049.61 471.62 1031.75 476.21
  Q 993.90 485.94 957.22 501.77
  C 914.91 520.04 881.43 547.86 850.62 581.52
  C 837.30 596.06 826.28 612.00 815.55 629.29
  C 806.88 643.26 799.34 659.76 793.16 674.40
  Q 787.90 686.86 782.27 707.96
  C 779.68 717.64 776.01 727.08 773.01 736.87
  A 1.08 1.08 0.0 0 0 774.37 738.21
  Q 775.96 737.68 777.47 736.23
  C 785.48 728.54 791.50 720.38 800.14 712.06
  C 808.62 703.90 816.01 695.88 823.77 687.62
  C 834.70 675.98 846.48 665.10 857.90 653.90
  Q 867.46 644.52 887.16 628.07
  Q 892.98 623.21 899.67 618.46
  C 912.51 609.33 923.31 601.95 939.23 593.47
  C 959.07 582.90 979.80 573.32 1001.11 566.11
  C 1016.79 560.79 1033.03 555.14 1049.24 550.37
  C 1056.02 548.37 1062.77 544.94 1069.80 544.23
  Q 1070.33 544.17 1070.52 544.67
  Q 1070.98 545.93 1069.87 546.86
  C 1063.87 551.92 1058.23 556.82 1052.87 562.90
  Q 1036.60 581.33 1019.69 599.18
  Q 1006.29 613.32 998.95 619.70
  C 985.25 631.59 971.83 643.70 957.06 654.30
  Q 937.12 668.61 916.15 681.36
  C 893.19 695.32 873.09 708.04 847.98 724.51
  Q 820.88 742.27 811.97 749.68
  C 802.98 757.15 792.99 764.99 785.01 772.14
  Q 770.64 785.00 757.37 798.99
  C 748.76 808.05 739.16 819.64 730.04 829.92
  C 726.98 833.37 724.53 837.15 721.86 840.97
  A 2.84 2.83 -44.9 0 1 717.20 840.97
  C 708.13 827.89 697.01 815.09 688.29 805.72
  Q 671.07 787.22 648.71 767.85
  C 640.05 760.35 630.22 752.95 620.81 745.69
  Q 610.41 737.65 586.53 721.13
  C 570.35 709.94 555.34 701.38 536.56 690.67
  C 493.32 666.00 451.76 635.39 418.45 599.30
  Q 400.94 580.32 394.56 571.94
  Q 385.24 559.68 375.45 547.78
  Q 374.45 546.57 374.39 545.21
  A 0.83 0.83 0.0 0 1 375.43 544.37
  C 381.85 546.09 387.88 549.32 393.49 551.14
  C 398.54 552.78 403.61 554.71 408.54 556.19
  C 447.58 567.90 485.95 582.27 521.15 603.36
  C 546.29 618.41 569.94 635.13 591.30 654.70
  C 608.74 670.69 628.22 689.50 646.12 707.62
  C 653.61 715.19 660.67 723.61 667.95 731.75
  Q 668.87 732.79 669.46 731.53
  Q 669.89 730.62 669.40 728.87
  Q 665.42 714.44 661.69 699.94
  C 656.01 677.88 647.40 656.82 636.47 636.83
  Q 629.85 624.71 627.42 620.82
  C 598.72 574.88 556.88 535.75 508.58 511.90
  Q 469.09 492.39 429.75 481.70
  Q 399.42 473.45 352.92 462.97
  C 331.83 458.21 311.11 452.02 290.20 446.59
  C 284.74 445.18 279.27 442.78 273.70 441.09
  Q 273.48 440.60 272.63 440.37
  A 0.22 0.22 0.0 0 1 272.54 439.98
  C 278.99 434.82 282.68 430.88 287.29 423.36
  Q 293.41 413.37 300.75 404.22
  Q 312.92 389.02 325.10 373.83
  Q 328.61 369.46 331.77 366.33
  C 336.33 361.80 335.43 358.75 334.48 352.07
  Q 332.74 339.80 330.28 327.65
  C 329.52 323.92 329.20 319.89 328.52 316.00
  Q 328.19 314.13 327.16 313.29
  Q 326.33 312.63 325.59 313.39
  C 317.87 321.36 309.78 329.37 302.86 337.57
  C 287.20 356.12 272.45 375.39 259.26 395.78
  C 251.85 407.24 244.78 416.87 238.08 427.75
  A 2.06 2.06 0.0 0 0 238.96 430.69
  C 245.31 433.66 252.15 435.86 258.70 438.51
  C 261.43 439.62 263.67 441.11 266.16 442.70
  Z
  M 185.58 748.49
  C 184.04 727.52 184.31 710.01 185.13 688.52
  C 185.52 678.19 186.93 667.20 187.78 656.49
  Q 188.52 647.31 194.24 614.75
  Q 195.56 607.23 200.00 587.51
  C 202.84 574.89 206.95 560.89 210.17 547.47
  C 210.92 544.35 212.45 540.24 207.76 539.15
  C 197.37 536.75 187.76 529.94 178.90 524.25
  A 1.24 1.24 0.0 0 0 177.05 524.94
  Q 169.76 549.20 163.34 573.66
  C 160.17 585.77 157.50 598.67 154.73 611.25
  Q 150.83 629.00 148.35 657.40
  Q 147.58 666.28 146.85 675.17
  C 144.79 700.16 144.95 725.67 146.63 750.11
  C 147.32 760.23 148.41 774.98 150.18 786.74
  Q 153.91 811.38 159.46 835.69
  C 161.10 842.87 163.45 851.08 165.38 858.82
  Q 166.71 864.14 168.00 868.10
  C 169.34 872.20 170.50 876.84 172.67 880.57
  C 174.25 883.29 176.37 883.38 179.26 883.70
  Q 195.95 885.53 212.22 886.41
  A 1.47 1.47 0.0 0 0 213.67 884.41
  C 206.85 866.77 202.65 848.20 197.87 829.95
  C 190.91 803.36 187.66 776.75 185.58 748.49
  Z
  M 1265.02 542.02
  C 1261.62 552.57 1255.29 563.63 1252.04 571.75
  Q 1248.90 579.60 1251.11 588.50
  C 1253.49 598.11 1256.45 611.43 1258.48 623.60
  C 1259.95 632.46 1261.82 641.73 1262.80 650.19
  Q 1268.19 696.51 1264.83 743.03
  C 1263.38 762.95 1260.35 782.58 1257.06 802.37
  Q 1255.03 814.61 1253.43 822.02
  Q 1246.94 852.10 1236.77 881.17
  Q 1231.80 895.40 1226.38 909.48
  C 1225.47 911.86 1222.83 918.39 1225.48 920.25
  Q 1227.43 921.61 1232.05 924.23
  Q 1241.75 929.74 1249.86 937.34
  C 1252.29 939.61 1254.79 941.73 1257.13 937.86
  Q 1258.88 934.95 1259.39 933.63
  Q 1266.55 915.01 1273.61 896.36
  Q 1282.73 872.25 1290.24 839.90
  C 1291.42 834.82 1292.44 828.78 1293.65 823.23
  C 1305.40 768.94 1306.92 710.53 1301.84 653.98
  C 1300.77 642.03 1298.66 629.49 1296.78 617.25
  C 1294.35 601.49 1288.68 583.11 1283.67 565.77
  C 1280.82 555.91 1275.36 543.98 1271.46 531.15
  Q 1270.94 529.44 1269.51 531.11
  A 2.43 2.32 -13.9 0 0 1269.18 531.63
  Q 1266.74 536.70 1265.02 542.02
  Z
  M 548.95 1233.84
  C 548.67 1228.54 548.94 1226.36 543.23 1224.25
  C 537.92 1222.28 532.46 1220.54 527.42 1218.20
  Q 497.92 1204.52 469.52 1188.67
  C 386.73 1142.48 325.24 1079.86 275.95 1004.46
  C 269.73 994.94 263.64 983.90 257.56 973.58
  C 255.00 969.25 252.38 966.50 247.50 966.19
  Q 236.10 965.44 217.75 965.51
  Q 215.19 965.52 212.90 965.80
  A 1.33 1.32 72.0 0 0 211.91 967.76
  Q 214.96 973.28 217.46 978.80
  C 232.56 1012.15 252.32 1041.59 275.17 1071.85
  C 306.47 1113.29 344.57 1149.85 386.26 1181.26
  C 391.50 1185.21 397.90 1189.45 403.66 1193.64
  C 438.64 1219.03 474.19 1237.98 514.05 1253.89
  C 523.79 1257.77 535.54 1261.08 546.23 1265.03
  C 549.74 1266.32 550.03 1263.99 549.98 1261.50
  Q 549.70 1247.66 548.95 1233.84
  Z
  M 1186.86 987.47
  C 1186.35 986.57 1185.96 984.89 1184.71 984.10
  A 1.01 1.01 0.0 0 0 1183.31 984.43
  C 1178.28 992.59 1171.56 1000.75 1166.87 1007.78
  C 1158.11 1020.91 1148.75 1033.14 1138.92 1045.54
  C 1131.57 1054.80 1123.50 1063.84 1115.64 1072.90
  Q 1113.32 1075.58 1114.04 1078.50
  Q 1116.25 1087.51 1122.56 1109.59
  C 1123.57 1113.13 1125.03 1117.02 1126.15 1120.78
  A 0.49 0.49 0.0 0 0 1126.96 1120.99
  Q 1137.83 1110.53 1147.50 1098.74
  C 1159.71 1083.85 1171.87 1068.94 1183.44 1053.47
  Q 1193.23 1040.37 1203.06 1027.31
  Q 1205.56 1023.99 1203.50 1019.76
  Q 1198.21 1008.86 1194.87 1002.74
  C 1192.11 997.66 1189.72 992.46 1186.86 987.47
  Z
  M 894.32 1246.71
  Q 893.18 1253.12 891.89 1259.89
  A 1.56 1.55 9.3 0 0 893.22 1261.72
  Q 894.11 1261.83 895.41 1261.41
  Q 908.91 1257.07 922.47 1252.93
  Q 931.99 1250.02 935.26 1248.70
  C 944.14 1245.10 953.66 1241.67 961.87 1237.96
  Q 994.83 1223.05 1025.70 1204.23
  C 1040.10 1195.44 1054.36 1184.98 1068.43 1175.12
  C 1079.17 1167.59 1087.91 1160.68 1097.00 1152.50
  C 1100.40 1149.43 1096.67 1143.85 1094.30 1139.39
  C 1090.08 1131.47 1086.26 1122.97 1081.29 1115.51
  A 1.31 1.30 51.8 0 0 1079.32 1115.27
  Q 1058.26 1134.63 1034.34 1150.85
  Q 1005.49 1170.40 991.95 1177.71
  Q 974.07 1187.37 956.06 1196.80
  C 948.78 1200.61 941.11 1203.57 933.62 1206.94
  C 922.73 1211.83 912.96 1215.68 902.50 1219.81
  C 898.26 1221.49 896.54 1223.39 896.23 1228.22
  C 895.83 1234.47 895.43 1240.47 894.32 1246.71
  Z"
/>
<path fill="#ffffff" d="
  M 715.85 252.31
  A 0.97 0.97 0.0 0 0 714.77 253.13
  Q 711.42 274.55 708.20 295.96
  Q 704.98 317.37 701.36 338.72
  Q 693.08 387.49 688.47 433.25
  C 686.17 456.07 686.30 479.59 687.48 502.65
  Q 687.88 510.55 689.18 521.28
  C 690.18 529.55 690.99 538.09 692.44 546.02
  Q 696.36 567.40 701.81 588.44
  Q 703.59 595.31 704.19 602.10
  A 0.70 0.70 0.0 0 1 703.10 602.74
  C 697.44 598.81 692.58 594.07 687.33 589.66
  C 675.06 579.34 663.08 566.38 653.68 554.82
  Q 617.11 509.84 603.20 453.44
  Q 597.89 431.93 597.85 409.75
  C 597.82 390.42 597.96 376.11 599.86 359.07
  C 600.68 351.82 602.27 344.30 603.64 336.93
  Q 604.93 329.96 606.89 322.19
  C 608.53 315.64 609.96 308.86 611.90 302.68
  Q 621.67 271.56 635.42 243.42
  C 644.10 225.66 654.08 206.23 664.49 188.11
  C 676.13 167.84 687.34 147.22 699.63 127.34
  Q 709.53 111.33 718.71 94.89
  Q 719.31 93.83 720.01 93.03
  Q 721.40 91.44 722.40 93.30
  C 727.56 102.90 733.88 113.48 738.54 121.83
  C 751.42 144.94 764.91 167.68 777.87 190.73
  C 794.11 219.61 805.31 240.55 817.01 268.74
  C 830.05 300.16 839.18 333.49 842.89 366.25
  Q 844.73 382.47 844.64 403.25
  C 844.47 441.12 835.87 479.49 817.48 512.76
  C 800.97 542.63 780.33 566.66 754.08 588.91
  C 748.73 593.45 741.70 602.12 734.75 603.75
  A 0.54 0.54 0.0 0 1 734.09 603.25
  Q 733.97 600.84 734.71 598.74
  C 737.12 591.86 738.96 585.45 740.46 577.89
  C 742.02 570.03 743.75 562.09 744.74 554.32
  C 747.62 531.88 750.03 508.43 748.60 485.68
  Q 747.07 461.41 746.19 453.25
  C 739.86 394.68 726.77 333.04 718.89 271.39
  C 718.22 266.19 718.16 259.98 717.41 254.27
  Q 717.18 252.48 715.85 252.31
  Z"
/>
<path fill="#848384" d="
  M 496.84 187.55
  C 509.45 181.85 522.33 177.33 535.38 172.82
  Q 539.17 171.52 542.70 170.26
  A 1.15 1.14 -5.8 0 1 544.22 171.50
  C 543.28 178.02 542.12 184.29 541.62 190.87
  Q 540.84 200.96 539.74 208.01
  C 539.14 211.86 531.52 213.54 528.38 215.14
  Q 511.53 223.72 494.61 232.18
  C 477.09 240.94 457.69 250.89 443.49 261.28
  C 432.64 269.22 421.66 276.69 411.21 285.28
  Q 398.20 295.96 384.89 306.27
  C 380.30 309.82 376.64 314.29 372.48 318.49
  A 1.20 1.20 0.0 0 1 370.47 317.98
  Q 370.09 316.63 370.05 315.00
  Q 369.56 292.23 368.21 274.75
  C 367.88 270.41 369.62 269.29 372.97 266.21
  C 400.98 240.42 430.38 221.48 463.91 203.23
  C 474.42 197.51 485.74 192.56 496.84 187.55
  Z"
/>
<path fill="#848384" d="
  M 1086.12 287.36
  C 1079.96 294.32 1074.28 304.07 1065.84 310.82
  A 1.98 1.97 45.4 0 1 1063.35 310.80
  Q 1039.98 291.67 1014.04 275.76
  C 994.25 263.61 972.20 250.27 953.74 241.34
  Q 938.48 233.96 923.28 226.47
  C 917.62 223.68 911.44 221.22 905.51 218.54
  C 901.34 216.65 899.21 214.34 899.02 209.76
  Q 898.33 193.70 897.21 177.34
  A 1.96 1.46 55.1 0 1 897.22 177.01
  Q 897.50 174.53 899.55 175.32
  Q 904.14 177.07 908.69 178.91
  C 916.36 182.01 924.78 183.99 932.32 187.17
  C 950.88 194.98 966.66 202.99 989.28 214.51
  C 1006.65 223.36 1025.75 235.72 1039.80 245.44
  Q 1059.35 258.98 1085.44 280.58
  Q 1089.29 283.77 1086.12 287.36
  Z"
/>
<path fill="#848384" d="
  M 1257.30 514.47
  C 1259.83 521.48 1259.28 526.11 1255.93 532.54
  Q 1248.97 545.95 1241.92 559.19
  A 1.46 1.46 0.0 0 1 1240.26 559.92
  Q 1240.08 559.87 1239.74 559.28
  C 1235.02 551.05 1230.57 539.80 1227.74 533.91
  C 1215.43 508.30 1201.76 483.85 1185.83 459.98
  Q 1179.11 449.91 1172.54 439.75
  C 1170.74 436.97 1169.83 434.19 1168.26 431.37
  Q 1158.18 413.29 1148.59 401.41
  C 1129.90 378.26 1112.59 357.93 1092.25 337.11
  C 1090.52 335.34 1088.56 333.93 1086.63 332.36
  Q 1083.86 330.09 1086.52 327.50
  Q 1098.19 316.17 1110.13 305.34
  Q 1112.86 302.86 1115.41 305.53
  C 1134.05 325.07 1154.05 345.50 1169.15 365.61
  Q 1184.58 386.16 1189.64 393.60
  Q 1194.16 400.24 1205.81 419.21
  C 1207.93 422.66 1210.77 426.26 1213.08 429.91
  Q 1224.96 448.67 1235.63 468.14
  C 1236.95 470.55 1237.98 473.29 1239.28 475.55
  Q 1249.97 494.22 1257.30 514.47
  Z"
/>
<path fill="#848384" d="
  M 273.70 441.09
  Q 269.10 440.80 267.25 441.09
  Q 265.58 441.35 266.16 442.70
  C 263.67 441.11 261.43 439.62 258.70 438.51
  C 252.15 435.86 245.31 433.66 238.96 430.69
  A 2.06 2.06 0.0 0 1 238.08 427.75
  C 244.78 416.87 251.85 407.24 259.26 395.78
  C 272.45 375.39 287.20 356.12 302.86 337.57
  C 309.78 329.37 317.87 321.36 325.59 313.39
  Q 326.33 312.63 327.16 313.29
  Q 328.19 314.13 328.52 316.00
  C 329.20 319.89 329.52 323.92 330.28 327.65
  Q 332.74 339.80 334.48 352.07
  C 335.43 358.75 336.33 361.80 331.77 366.33
  Q 328.61 369.46 325.10 373.83
  Q 312.92 389.02 300.75 404.22
  Q 293.41 413.37 287.29 423.36
  C 282.68 430.88 278.99 434.82 272.54 439.98
  A 0.22 0.22 0.0 0 0 272.63 440.37
  Q 273.48 440.60 273.70 441.09
  Z"
/>
<path fill="#ffffff" d="
  M 266.16 442.70
  Q 265.58 441.35 267.25 441.09
  Q 269.10 440.80 273.70 441.09
  C 279.27 442.78 284.74 445.18 290.20 446.59
  C 311.11 452.02 331.83 458.21 352.92 462.97
  Q 399.42 473.45 429.75 481.70
  Q 469.09 492.39 508.58 511.90
  C 556.88 535.75 598.72 574.88 627.42 620.82
  Q 629.85 624.71 636.47 636.83
  C 647.40 656.82 656.01 677.88 661.69 699.94
  Q 665.42 714.44 669.40 728.87
  Q 669.89 730.62 669.46 731.53
  Q 668.87 732.79 667.95 731.75
  C 660.67 723.61 653.61 715.19 646.12 707.62
  C 628.22 689.50 608.74 670.69 591.30 654.70
  C 569.94 635.13 546.29 618.41 521.15 603.36
  C 485.95 582.27 447.58 567.90 408.54 556.19
  C 403.61 554.71 398.54 552.78 393.49 551.14
  C 387.88 549.32 381.85 546.09 375.43 544.37
  A 0.83 0.83 0.0 0 0 374.39 545.21
  Q 374.45 546.57 375.45 547.78
  Q 385.24 559.68 394.56 571.94
  Q 400.94 580.32 418.45 599.30
  C 451.76 635.39 493.32 666.00 536.56 690.67
  C 555.34 701.38 570.35 709.94 586.53 721.13
  Q 610.41 737.65 620.81 745.69
  C 630.22 752.95 640.05 760.35 648.71 767.85
  Q 671.07 787.22 688.29 805.72
  C 697.01 815.09 708.13 827.89 717.20 840.97
  A 2.84 2.83 -44.9 0 0 721.86 840.97
  C 724.53 837.15 726.98 833.37 730.04 829.92
  C 739.16 819.64 748.76 808.05 757.37 798.99
  Q 770.64 785.00 785.01 772.14
  C 792.99 764.99 802.98 757.15 811.97 749.68
  Q 820.88 742.27 847.98 724.51
  C 873.09 708.04 893.19 695.32 916.15 681.36
  Q 937.12 668.61 957.06 654.30
  C 971.83 643.70 985.25 631.59 998.95 619.70
  Q 1006.29 613.32 1019.69 599.18
  Q 1036.60 581.33 1052.87 562.90
  C 1058.23 556.82 1063.87 551.92 1069.87 546.86
  Q 1070.98 545.93 1070.52 544.67
  Q 1070.33 544.17 1069.80 544.23
  C 1062.77 544.94 1056.02 548.37 1049.24 550.37
  C 1033.03 555.14 1016.79 560.79 1001.11 566.11
  C 979.80 573.32 959.07 582.90 939.23 593.47
  C 923.31 601.95 912.51 609.33 899.67 618.46
  Q 892.98 623.21 887.16 628.07
  Q 867.46 644.52 857.90 653.90
  C 846.48 665.10 834.70 675.98 823.77 687.62
  C 816.01 695.88 808.62 703.90 800.14 712.06
  C 791.50 720.38 785.48 728.54 777.47 736.23
  Q 775.96 737.68 774.37 738.21
  A 1.08 1.08 0.0 0 1 773.01 736.87
  C 776.01 727.08 779.68 717.64 782.27 707.96
  Q 787.90 686.86 793.16 674.40
  C 799.34 659.76 806.88 643.26 815.55 629.29
  C 826.28 612.00 837.30 596.06 850.62 581.52
  C 881.43 547.86 914.91 520.04 957.22 501.77
  Q 993.90 485.94 1031.75 476.21
  Q 1049.61 471.62 1077.29 464.92
  C 1100.09 459.41 1122.64 452.96 1145.24 446.69
  C 1152.43 444.69 1158.38 442.38 1164.71 439.33
  A 1.46 1.45 -14.5 0 1 1166.79 440.55
  Q 1166.93 442.82 1165.88 445.17
  Q 1163.54 450.41 1162.39 456.03
  C 1156.62 484.26 1150.43 506.14 1140.89 533.95
  C 1124.02 583.18 1098.47 626.09 1064.34 664.94
  C 1056.08 674.34 1044.67 685.45 1036.69 692.94
  C 1008.52 719.39 975.05 739.97 936.82 757.31
  C 922.88 763.64 899.95 772.67 882.02 781.41
  C 861.52 791.41 842.76 801.62 826.67 813.42
  C 805.40 829.00 785.25 849.06 766.84 871.53
  C 758.31 881.94 748.88 895.35 742.79 905.53
  C 736.38 916.26 731.95 925.35 726.77 935.16
  C 722.98 942.35 720.20 949.64 716.81 956.92
  A 2.25 2.19 -9.6 0 1 716.32 957.59
  Q 714.70 959.08 713.99 957.27
  C 704.79 933.84 692.59 912.55 677.91 890.99
  C 662.25 867.99 642.30 846.79 621.69 828.19
  C 605.53 813.60 587.09 801.28 567.85 791.12
  Q 551.57 782.53 534.86 774.80
  Q 517.21 766.63 499.68 758.20
  C 486.67 751.93 473.03 745.54 461.09 738.48
  C 428.74 719.38 396.82 694.96 372.32 666.53
  Q 367.27 660.67 362.29 654.74
  Q 343.17 631.94 327.69 606.58
  C 303.02 566.16 289.32 526.62 277.20 482.17
  C 274.87 473.62 272.99 463.27 270.50 453.26
  Q 268.94 446.96 266.16 442.70
  Z"
/>
<path fill="#848384" d="
  M 185.13 688.52
  C 184.31 710.01 184.04 727.52 185.58 748.49
  C 187.66 776.75 190.91 803.36 197.87 829.95
  C 202.65 848.20 206.85 866.77 213.67 884.41
  A 1.47 1.47 0.0 0 1 212.22 886.41
  Q 195.95 885.53 179.26 883.70
  C 176.37 883.38 174.25 883.29 172.67 880.57
  C 170.50 876.84 169.34 872.20 168.00 868.10
  Q 166.71 864.14 165.38 858.82
  C 163.45 851.08 161.10 842.87 159.46 835.69
  Q 153.91 811.38 150.18 786.74
  C 148.41 774.98 147.32 760.23 146.63 750.11
  C 144.95 725.67 144.79 700.16 146.85 675.17
  Q 147.58 666.28 148.35 657.40
  Q 150.83 629.00 154.73 611.25
  C 157.50 598.67 160.17 585.77 163.34 573.66
  Q 169.76 549.20 177.05 524.94
  A 1.24 1.24 0.0 0 1 178.90 524.25
  C 187.76 529.94 197.37 536.75 207.76 539.15
  C 212.45 540.24 210.92 544.35 210.17 547.47
  C 206.95 560.89 202.84 574.89 200.00 587.51
  Q 195.56 607.23 194.24 614.75
  Q 188.52 647.31 187.78 656.49
  C 186.93 667.20 185.52 678.19 185.13 688.52
  Z"
/>
<path fill="#848384" d="
  M 1265.02 542.02
  Q 1266.74 536.70 1269.18 531.63
  A 2.43 2.32 -13.9 0 1 1269.51 531.11
  Q 1270.94 529.44 1271.46 531.15
  C 1275.36 543.98 1280.82 555.91 1283.67 565.77
  C 1288.68 583.11 1294.35 601.49 1296.78 617.25
  C 1298.66 629.49 1300.77 642.03 1301.84 653.98
  C 1306.92 710.53 1305.40 768.94 1293.65 823.23
  C 1292.44 828.78 1291.42 834.82 1290.24 839.90
  Q 1282.73 872.25 1273.61 896.36
  Q 1266.55 915.01 1259.39 933.63
  Q 1258.88 934.95 1257.13 937.86
  C 1254.79 941.73 1252.29 939.61 1249.86 937.34
  Q 1241.75 929.74 1232.05 924.23
  Q 1227.43 921.61 1225.48 920.25
  C 1222.83 918.39 1225.47 911.86 1226.38 909.48
  Q 1231.80 895.40 1236.77 881.17
  Q 1246.94 852.10 1253.43 822.02
  Q 1255.03 814.61 1257.06 802.37
  C 1260.35 782.58 1263.38 762.95 1264.83 743.03
  Q 1268.19 696.51 1262.80 650.19
  C 1261.82 641.73 1259.95 632.46 1258.48 623.60
  C 1256.45 611.43 1253.49 598.11 1251.11 588.50
  Q 1248.90 579.60 1252.04 571.75
  C 1255.29 563.63 1261.62 552.57 1265.02 542.02
  Z"
/>
<path fill="#ffffff" d="
  M 789.12 1429.68
  Q 789.55 1429.27 789.02 1429.85
  Q 788.25 1429.77 787.99 1430.59
  A 0.79 0.79 0.0 0 1 787.24 1431.13
  L 785.74 1431.13
  A 0.21 0.21 0.0 0 0 785.67 1431.53
  Q 786.51 1431.83 787.36 1431.59
  Q 787.44 1431.57 787.36 1431.57
  L 767.46 1431.16
  L 755.97 1432.03
  L 742.82 1432.31
  Q 742.78 1432.98 742.19 1432.37
  Q 741.85 1432.02 741.82 1431.53
  Q 741.07 1419.03 741.22 1406.50
  Q 741.95 1345.22 741.37 1294.25
  Q 741.07 1268.97 741.74 1249.00
  Q 741.93 1243.19 738.91 1236.35
  C 733.23 1223.52 725.86 1211.73 718.76 1199.68
  Q 713.12 1190.13 708.29 1182.64
  Q 696.00 1163.57 689.57 1155.70
  C 680.96 1145.17 672.15 1133.56 663.76 1124.14
  C 650.75 1109.51 637.02 1095.24 621.90 1082.78
  C 615.77 1077.72 609.37 1072.12 603.42 1067.75
  C 588.93 1057.11 572.97 1047.81 557.14 1039.30
  C 528.65 1023.99 503.30 1010.27 477.86 992.38
  Q 469.45 986.47 462.08 980.12
  C 427.73 950.56 399.76 916.19 376.59 877.17
  C 357.01 844.19 342.77 815.42 327.34 779.39
  C 325.37 774.78 321.80 767.94 319.67 761.86
  Q 319.44 761.20 319.59 760.66
  A 0.63 0.63 0.0 0 1 320.47 760.26
  Q 339.55 769.54 359.55 776.55
  C 368.22 779.59 376.93 783.56 384.98 786.34
  Q 413.43 796.15 441.81 806.14
  C 458.17 811.89 474.36 818.99 490.64 825.34
  Q 496.28 827.54 508.36 834.05
  Q 515.79 838.05 525.49 843.86
  C 543.40 854.60 558.43 863.64 573.45 876.22
  Q 591.62 891.44 603.45 905.30
  Q 619.40 923.99 627.36 939.15
  Q 635.60 954.86 637.45 960.51
  Q 640.35 969.38 643.23 978.24
  Q 643.67 979.58 643.62 980.44
  A 0.93 0.92 -68.0 0 1 642.09 981.09
  C 622.30 963.75 599.98 949.65 577.14 938.63
  C 571.78 936.05 565.47 933.69 559.19 931.71
  C 538.85 925.29 522.18 921.89 503.24 918.28
  Q 499.79 917.62 495.54 917.73
  A 1.04 1.03 -0.0 0 0 494.53 918.73
  Q 494.49 920.11 496.01 920.74
  C 500.32 922.53 504.01 924.43 508.02 927.27
  Q 527.07 940.73 546.09 954.22
  C 551.99 958.40 559.41 963.22 565.95 967.92
  Q 570.84 971.43 575.54 974.53
  C 601.34 991.52 623.63 1007.66 649.79 1029.72
  C 679.96 1055.16 705.97 1085.67 729.29 1117.38
  Q 731.02 1119.72 732.75 1122.51
  C 734.40 1125.16 735.94 1128.80 738.48 1130.59
  Q 739.98 1131.65 740.00 1129.81
  C 740.14 1117.45 740.58 1105.72 742.23 1093.12
  C 744.95 1072.31 748.53 1053.61 753.91 1034.11
  C 758.90 1015.99 766.20 998.87 774.53 982.19
  C 782.59 966.02 792.41 951.26 803.18 936.42
  C 812.35 923.77 822.65 912.98 833.37 902.12
  Q 845.07 890.24 858.06 879.79
  C 876.24 865.14 893.48 852.75 913.73 841.52
  Q 936.41 828.94 944.55 825.07
  Q 950.22 822.36 970.78 814.07
  Q 982.05 809.53 1017.40 796.22
  C 1050.14 783.89 1077.82 775.58 1106.91 761.89
  Q 1109.96 760.46 1113.01 759.81
  A 0.81 0.81 0.0 0 1 1113.96 760.82
  C 1112.04 767.63 1107.68 773.58 1105.10 780.18
  Q 1099.83 793.66 1093.83 806.83
  C 1075.96 845.97 1056.49 886.75 1032.45 920.45
  Q 1029.32 924.85 1019.62 936.76
  C 1002.60 957.68 982.55 977.07 961.51 992.02
  C 943.71 1004.67 924.45 1017.35 901.60 1026.33
  Q 896.74 1028.25 891.99 1030.39
  Q 884.26 1033.88 871.08 1038.61
  C 865.46 1040.63 858.94 1044.33 852.13 1046.00
  A 0.80 0.79 6.2 0 1 851.22 1044.88
  C 854.27 1038.67 857.57 1032.74 860.34 1026.32
  C 872.90 997.27 889.46 969.24 909.95 945.07
  C 924.62 927.76 939.24 911.56 957.21 897.99
  Q 964.88 892.21 972.77 886.72
  Q 973.99 885.88 974.59 884.68
  A 0.56 0.56 0.0 0 0 974.00 883.87
  C 967.36 884.93 961.03 885.95 954.52 888.10
  Q 935.82 894.24 925.25 898.44
  Q 885.06 914.41 857.41 948.16
  Q 843.98 964.54 833.83 981.05
  Q 817.63 1007.39 810.09 1030.54
  C 802.93 1052.54 799.50 1067.92 795.06 1092.00
  C 792.20 1107.49 791.09 1125.95 790.77 1143.50
  C 789.56 1209.08 790.78 1274.66 790.27 1340.25
  Q 789.94 1382.58 789.90 1424.91
  C 789.90 1426.54 789.45 1428.05 789.12 1429.68
  Z"
/>
<path fill="#848384" d="
  M 548.95 1233.84
  Q 549.70 1247.66 549.98 1261.50
  C 550.03 1263.99 549.74 1266.32 546.23 1265.03
  C 535.54 1261.08 523.79 1257.77 514.05 1253.89
  C 474.19 1237.98 438.64 1219.03 403.66 1193.64
  C 397.90 1189.45 391.50 1185.21 386.26 1181.26
  C 344.57 1149.85 306.47 1113.29 275.17 1071.85
  C 252.32 1041.59 232.56 1012.15 217.46 978.80
  Q 214.96 973.28 211.91 967.76
  A 1.33 1.32 72.0 0 1 212.90 965.80
  Q 215.19 965.52 217.75 965.51
  Q 236.10 965.44 247.50 966.19
  C 252.38 966.50 255.00 969.25 257.56 973.58
  C 263.64 983.90 269.73 994.94 275.95 1004.46
  C 325.24 1079.86 386.73 1142.48 469.52 1188.67
  Q 497.92 1204.52 527.42 1218.20
  C 532.46 1220.54 537.92 1222.28 543.23 1224.25
  C 548.94 1226.36 548.67 1228.54 548.95 1233.84
  Z"
/>
<path fill="#848384" d="
  M 1186.86 987.47
  C 1189.72 992.46 1192.11 997.66 1194.87 1002.74
  Q 1198.21 1008.86 1203.50 1019.76
  Q 1205.56 1023.99 1203.06 1027.31
  Q 1193.23 1040.37 1183.44 1053.47
  C 1171.87 1068.94 1159.71 1083.85 1147.50 1098.74
  Q 1137.83 1110.53 1126.96 1120.99
  A 0.49 0.49 0.0 0 1 1126.15 1120.78
  C 1125.03 1117.02 1123.57 1113.13 1122.56 1109.59
  Q 1116.25 1087.51 1114.04 1078.50
  Q 1113.32 1075.58 1115.64 1072.90
  C 1123.50 1063.84 1131.57 1054.80 1138.92 1045.54
  C 1148.75 1033.14 1158.11 1020.91 1166.87 1007.78
  C 1171.56 1000.75 1178.28 992.59 1183.31 984.43
  A 1.01 1.01 0.0 0 1 1184.71 984.10
  C 1185.96 984.89 1186.35 986.57 1186.86 987.47
  Z"
/>
<path fill="#848384" d="
  M 894.32 1246.71
  C 895.43 1240.47 895.83 1234.47 896.23 1228.22
  C 896.54 1223.39 898.26 1221.49 902.50 1219.81
  C 912.96 1215.68 922.73 1211.83 933.62 1206.94
  C 941.11 1203.57 948.78 1200.61 956.06 1196.80
  Q 974.07 1187.37 991.95 1177.71
  Q 1005.49 1170.40 1034.34 1150.85
  Q 1058.26 1134.63 1079.32 1115.27
  A 1.31 1.30 51.8 0 1 1081.29 1115.51
  C 1086.26 1122.97 1090.08 1131.47 1094.30 1139.39
  C 1096.67 1143.85 1100.40 1149.43 1097.00 1152.50
  C 1087.91 1160.68 1079.17 1167.59 1068.43 1175.12
  C 1054.36 1184.98 1040.10 1195.44 1025.70 1204.23
  Q 994.83 1223.05 961.87 1237.96
  C 953.66 1241.67 944.14 1245.10 935.26 1248.70
  Q 931.99 1250.02 922.47 1252.93
  Q 908.91 1257.07 895.41 1261.41
  Q 894.11 1261.83 893.22 1261.72
  A 1.56 1.55 9.3 0 1 891.89 1259.89
  Q 893.18 1253.12 894.32 1246.71
  Z"
/>
<path fill="#ffffff" d="
  M 694.00 1433.64
  Q 692.46 1435.46 689.25 1435.71
  Q 688.35 1435.79 688.11 1436.55
  Q 688.01 1436.88 687.67 1436.89
  Q 686.34 1436.97 685.02 1436.92
  Q 684.98 1436.91 684.99 1436.95
  Q 685.02 1437.10 685.01 1437.21
  Q 685.00 1437.27 685.07 1437.28
  Q 687.20 1437.59 689.29 1437.13
  Q 689.37 1437.11 689.39 1437.19
  Q 689.43 1437.43 689.39 1437.32
  Q 689.38 1437.28 689.33 1437.28
  Q 682.61 1437.46 675.89 1437.36
  Q 675.87 1437.36 675.87 1437.37
  Q 675.87 1437.38 675.87 1437.38
  Q 675.87 1437.38 675.89 1437.38
  L 682.75 1436.85
  L 687.29 1436.72
  Q 687.45 1436.72 687.44 1436.56
  L 687.42 1436.27
  Q 687.41 1436.06 687.20 1436.10
  Q 685.06 1436.53 682.98 1436.22
  Q 678.43 1436.26 674.05 1435.39
  Q 673.98 1435.37 673.49 1435.36
  Q 673.11 1435.34 672.94 1434.98
  Q 672.89 1434.88 673.00 1434.87
  Q 673.14 1434.87 673.27 1434.87
  A 0.22 0.22 0.0 0 0 673.38 1434.46
  Q 670.56 1432.89 667.75 1432.58
  Q 666.94 1432.50 666.47 1432.03
  Q 666.11 1431.68 665.62 1431.60
  Q 660.17 1430.69 654.62 1430.61
  Q 653.83 1430.60 654.54 1430.94
  Q 655.41 1431.37 656.43 1431.12
  Q 656.56 1431.09 656.58 1431.22
  L 656.58 1431.23
  Q 656.60 1431.37 656.47 1431.37
  Q 654.60 1431.42 652.73 1431.36
  C 650.78 1431.30 649.01 1430.36 646.90 1430.12
  L 645.67 1427.70
  Q 645.07 1411.59 645.11 1400.75
  Q 645.38 1327.38 645.15 1254.00
  C 645.11 1242.44 645.49 1230.80 645.33 1219.33
  C 645.11 1203.93 645.37 1188.45 645.44 1173.02
  A 0.49 0.49 0.0 0 1 646.19 1172.61
  Q 648.06 1173.81 649.45 1175.78
  C 655.33 1184.09 660.85 1192.78 666.99 1200.75
  C 675.74 1212.09 684.33 1223.39 692.00 1235.50
  C 695.68 1241.30 695.51 1246.09 695.43 1252.75
  C 694.73 1310.00 694.33 1367.25 695.28 1424.50
  Q 695.35 1429.12 694.00 1433.64
  Z"
/>
<path fill="#848384" d="
  M 789.02 1429.85
  Q 789.13 1431.12 788.66 1431.83
  Q 788.08 1432.71 787.02 1432.63
  L 767.46 1431.16
  L 787.36 1431.57
  Q 787.44 1431.57 787.36 1431.59
  Q 786.51 1431.83 785.67 1431.53
  A 0.21 0.21 0.0 0 1 785.74 1431.13
  L 787.24 1431.13
  A 0.79 0.79 0.0 0 0 787.99 1430.59
  Q 788.25 1429.77 789.02 1429.85
  Z"
/>
<path fill="#848384" d="
  M 646.90 1430.12
  C 649.01 1430.36 650.78 1431.30 652.73 1431.36
  Q 654.60 1431.42 656.47 1431.37
  Q 656.60 1431.37 656.58 1431.23
  L 656.58 1431.22
  Q 656.56 1431.09 656.43 1431.12
  Q 655.41 1431.37 654.54 1430.94
  Q 653.83 1430.60 654.62 1430.61
  Q 660.17 1430.69 665.62 1431.60
  Q 666.11 1431.68 666.47 1432.03
  Q 666.94 1432.50 667.75 1432.58
  Q 670.56 1432.89 673.38 1434.46
  A 0.22 0.22 0.0 0 1 673.27 1434.87
  Q 673.14 1434.87 673.00 1434.87
  Q 672.89 1434.88 672.94 1434.98
  Q 673.11 1435.34 673.49 1435.36
  Q 673.98 1435.37 674.05 1435.39
  Q 678.43 1436.26 682.98 1436.22
  Q 682.99 1436.42 682.75 1436.85
  Q 674.99 1437.23 671.00 1435.89
  Q 668.36 1435.00 666.75 1434.94
  Q 662.64 1434.77 658.79 1434.32
  A 0.13 0.13 0.0 0 0 658.76 1434.58
  C 660.61 1434.82 662.06 1435.52 663.81 1435.45
  C 665.77 1435.36 668.72 1435.09 670.07 1435.97
  Q 670.42 1436.20 670.00 1436.20
  Q 663.75 1436.10 657.56 1435.47
  C 656.17 1435.33 654.83 1434.84 653.37 1434.61
  Q 653.36 1434.62 653.37 1434.61
  Q 654.40 1434.45 655.74 1434.50
  A 0.02 0.02 0.0 0 0 655.75 1434.46
  L 647.99 1431.38
  Q 647.52 1431.20 647.27 1430.76
  L 646.90 1430.12
  Z
  M 668.26 1433.58
  C 669.39 1433.79 670.81 1434.46 672.12 1434.64
  A 0.02 0.01 -30.1 0 0 672.13 1434.61
  Q 666.67 1432.56 660.88 1431.83
  Q 660.87 1431.87 660.89 1431.79
  Q 660.90 1431.77 660.93 1431.78
  Q 664.55 1432.88 668.26 1433.58
  Z
  M 657.74 1433.87
  C 656.84 1433.86 656.15 1433.43 655.12 1433.65
  Q 655.05 1433.67 655.12 1433.68
  L 657.74 1434.17
  Q 657.88 1434.20 657.88 1434.13
  Q 657.88 1434.06 657.88 1434.00
  Q 657.88 1433.87 657.74 1433.87
  Z"
/>
<path fill="#ffffff" d="
  M 668.26 1433.58
  Q 664.55 1432.88 660.93 1431.78
  Q 660.90 1431.77 660.89 1431.79
  Q 660.87 1431.87 660.88 1431.83
  Q 666.67 1432.56 672.13 1434.61
  A 0.02 0.01 -30.1 0 1 672.12 1434.64
  C 670.81 1434.46 669.39 1433.79 668.26 1433.58
  Z"
/>
<path fill="#848384" d="
  M 755.97 1432.03
  L 746.23 1433.01
  Q 743.71 1433.59 742.82 1432.31
  L 755.97 1432.03
  Z"
/>
</svg>
