<svg xmlns="http://www.w3.org/2000/svg" version="1.1" xmlns:xlink="http://www.w3.org/1999/xlink" xmlns:svgjs="http://svgjs.dev/svgjs" viewBox="0 0 1422 800"><defs><linearGradient x1="50%" y1="0%" x2="50%" y2="100%" id="oooscillate-grad"><stop stop-color="hsl(0, 0%, 100%)" stop-opacity="1" offset="0%"></stop><stop stop-color="hsl(0, 0%, 100%)" stop-opacity="1" offset="100%"></stop></linearGradient></defs><g stroke-width="1" stroke="url(#oooscillate-grad)" fill="none" stroke-linecap="round"><path d="M 0 2000 Q 355.5 165 711 400 Q 1066.5 635 1422 2000" opacity="0.05"></path><path d="M 0 1900 Q 355.5 165 711 400 Q 1066.5 635 1422 1900" opacity="0.10"></path><path d="M 0 1800 Q 355.5 165 711 400 Q 1066.5 635 1422 1800" opacity="0.15"></path><path d="M 0 1700 Q 355.5 165 711 400 Q 1066.5 635 1422 1700" opacity="0.20"></path><path d="M 0 1600 Q 355.5 165 711 400 Q 1066.5 635 1422 1600" opacity="0.25"></path><path d="M 0 1500 Q 355.5 165 711 400 Q 1066.5 635 1422 1500" opacity="0.30"></path><path d="M 0 1400 Q 355.5 165 711 400 Q 1066.5 635 1422 1400" opacity="0.35"></path><path d="M 0 1300 Q 355.5 165 711 400 Q 1066.5 635 1422 1300" opacity="0.40"></path><path d="M 0 1200 Q 355.5 165 711 400 Q 1066.5 635 1422 1200" opacity="0.45"></path><path d="M 0 1100 Q 355.5 165 711 400 Q 1066.5 635 1422 1100" opacity="0.50"></path><path d="M 0 1000 Q 355.5 165 711 400 Q 1066.5 635 1422 1000" opacity="0.55"></path><path d="M 0 900 Q 355.5 165 711 400 Q 1066.5 635 1422 900" opacity="0.60"></path><path d="M 0 800 Q 355.5 165 711 400 Q 1066.5 635 1422 800" opacity="0.65"></path><path d="M 0 700 Q 355.5 165 711 400 Q 1066.5 635 1422 700" opacity="0.70"></path><path d="M 0 600 Q 355.5 165 711 400 Q 1066.5 635 1422 600" opacity="0.75"></path><path d="M 0 500 Q 355.5 165 711 400 Q 1066.5 635 1422 500" opacity="0.80"></path><path d="M 0 400 Q 355.5 165 711 400 Q 1066.5 635 1422 400" opacity="0.85"></path><path d="M 0 300 Q 355.5 165 711 400 Q 1066.5 635 1422 300" opacity="0.90"></path><path d="M 0 200 Q 355.5 165 711 400 Q 1066.5 635 1422 200" opacity="0.95"></path></g></svg>