<svg xmlns="http://www.w3.org/2000/svg" version="1.1" xmlns:xlink="http://www.w3.org/1999/xlink" xmlns:svgjs="http://svgjs.dev/svgjs" viewBox="0 0 1422 800" opacity="0.11"><defs><linearGradient x1="50%" y1="0%" x2="50%" y2="100%" id="oooscillate-grad"><stop stop-color="hsl(0, 0%, 100%)" stop-opacity="1" offset="0%"></stop><stop stop-color="hsl(0, 0%, 100%)" stop-opacity="1" offset="100%"></stop></linearGradient></defs><g stroke-width="1" stroke="url(#oooscillate-grad)" fill="none" stroke-linecap="round"><path d="M 0 2125 Q 355.5 -100 711 400 Q 1066.5 900 1422 2125" opacity="0.23"></path><path d="M 0 2000 Q 355.5 -100 711 400 Q 1066.5 900 1422 2000" opacity="0.40"></path><path d="M 0 1875 Q 355.5 -100 711 400 Q 1066.5 900 1422 1875" opacity="0.10"></path><path d="M 0 1750 Q 355.5 -100 711 400 Q 1066.5 900 1422 1750" opacity="0.69"></path><path d="M 0 1625 Q 355.5 -100 711 400 Q 1066.5 900 1422 1625" opacity="0.77"></path><path d="M 0 1500 Q 355.5 -100 711 400 Q 1066.5 900 1422 1500" opacity="0.74"></path><path d="M 0 1375 Q 355.5 -100 711 400 Q 1066.5 900 1422 1375" opacity="0.65"></path><path d="M 0 1250 Q 355.5 -100 711 400 Q 1066.5 900 1422 1250" opacity="0.21"></path><path d="M 0 1125 Q 355.5 -100 711 400 Q 1066.5 900 1422 1125" opacity="0.14"></path><path d="M 0 1000 Q 355.5 -100 711 400 Q 1066.5 900 1422 1000" opacity="0.59"></path><path d="M 0 875 Q 355.5 -100 711 400 Q 1066.5 900 1422 875" opacity="0.73"></path><path d="M 0 750 Q 355.5 -100 711 400 Q 1066.5 900 1422 750" opacity="0.66"></path><path d="M 0 625 Q 355.5 -100 711 400 Q 1066.5 900 1422 625" opacity="0.52"></path><path d="M 0 500 Q 355.5 -100 711 400 Q 1066.5 900 1422 500" opacity="0.81"></path><path d="M 0 375 Q 355.5 -100 711 400 Q 1066.5 900 1422 375" opacity="0.91"></path><path d="M 0 250 Q 355.5 -100 711 400 Q 1066.5 900 1422 250" opacity="1.00"></path></g></svg>