<!DOCTYPE svg PUBLIC "-//W3C//DTD SVG 1.1//EN" "http://www.w3.org/Graphics/SVG/1.1/DTD/svg11.dtd">
<!-- Uploaded to: SVG Repo, www.svgrepo.com, Transformed by: SVG Repo Mixer Tools -->
<svg xmlns="http://www.w3.org/2000/svg" xmlns:xlink="http://www.w3.org/1999/xlink" version="1.1" id="increaseanalysis" viewBox="0 0 213.1768 199.5494" enable-background="new 0 0 213.1768 199.5494" xml:space="preserve" width="800px" height="800px" fill="#000000">
<g id="SVGRepo_bgCarrier" stroke-width="0"/>
<g id="SVGRepo_tracerCarrier" stroke-linecap="round" stroke-linejoin="round"/>
<g id="SVGRepo_iconCarrier"> <g> <rect x="10.0557" y="143.5494" fill="#6e24ff" width="8" height="56"/> <rect x="26.0557" y="107.5494" fill="#6e24ff" width="8" height="92"/> <rect x="42.0557" y="99.5494" fill="#6e24ff" width="8" height="99.6367"/> <rect x="58.0557" y="87.5494" fill="#6e24ff" width="8" height="111.6367"/> <rect x="74.0557" y="63.5494" fill="#6e24ff" width="8" height="136"/> <rect x="90.0557" y="59.5494" fill="#6e24ff" width="8" height="140"/> <rect x="106.0557" y="75.4791" fill="#6e24ff" width="8" height="124.0703"/> <rect x="122.0557" y="91.5474" fill="#6e24ff" width="8" height="107.5586"/> <rect x="138.0557" y="99.5474" fill="#6e24ff" width="8" height="99.5586"/> <rect x="154.0557" y="143.5494" fill="#6e24ff" width="8" height="56"/> <rect x="170.0557" y="127.5494" fill="#6e24ff" width="8" height="72"/> <rect x="186.0557" y="139.356" fill="#6e24ff" width="8" height="60.1934"/> <path fill="#6e24ff" d="M149.0085,40.4908l16.717-2.3496c2.1875-0.3066,3.7109-2.3301,3.4043-4.5176s-2.3125-3.7246-4.5176-3.4043 l-30.7852,4.3262c-1.0508,0.1484-2,0.707-2.6387,1.5527c-0.6387,0.8477-0.9141,1.9141-0.7656,2.9648l4.4746,31.832 c0.2812,1.998,1.9941,3.4434,3.9551,3.4434c0.1855,0,0.373-0.0117,0.5625-0.0391c2.1875-0.3066,3.7129-2.3301,3.4043-4.5176 l-3.7639-26.7754l69.3069,52.2266l4.8145-6.3887L149.0085,40.4908z"/> </g> <path fill="#6e24ff" d="M16,22.1412c-1.0239,0-2.0474-0.3906-2.8286-1.1714c-1.562-1.5625-1.562-4.0952,0-5.6572L27.3135,1.171 c1.5635-1.5615,4.0957-1.561,5.6572,0c1.562,1.5625,1.562,4.0952,0,5.6572L18.8286,20.9698 C18.0474,21.7505,17.0234,22.1412,16,22.1412z"/> <path fill="#6e24ff" d="M30.1421,22.1441c-1.0239,0-2.0474-0.3906-2.8286-1.1714L13.1714,6.8301 c-1.562-1.5625-1.562-4.0952,0-5.6572c1.5635-1.5615,4.0957-1.561,5.6572,0l14.1421,14.1426c1.562,1.5625,1.562,4.0952,0,5.6572 C32.1895,21.7535,31.1655,22.1441,30.1421,22.1441z"/> <path fill="#6e24ff" d="M14,90.1412c-7.7197,0-14-6.2803-14-14s6.2803-14,14-14s14,6.2803,14,14S21.7197,90.1412,14,90.1412z M14,70.1412c-3.3086,0-6,2.6914-6,6s2.6914,6,6,6s6-2.6914,6-6S17.3086,70.1412,14,70.1412z"/> <path fill="#6e24ff" d="M191.314,32.7711c-1.0234,0-2.0474-0.3906-2.8281-1.1714l-11.314-11.3135 C176.4214,19.5357,176,18.5186,176,17.4576s0.4214-2.0781,1.1719-2.8286l11.314-11.3135c1.5625-1.5615,4.0952-1.561,5.6567,0 l11.3135,11.3135c1.562,1.5625,1.562,4.0947,0,5.6572l-11.3135,11.3135C193.3613,32.3804,192.3374,32.7711,191.314,32.7711z M185.6567,17.4576l5.6572,5.6567l5.6567-5.6567l-5.6567-5.6567L185.6567,17.4576z"/> </g>
</svg>