<!DOCTYPE svg PUBLIC "-//W3C//DTD SVG 1.1//EN" "http://www.w3.org/Graphics/SVG/1.1/DTD/svg11.dtd">
<!-- Uploaded to: SVG Repo, www.svgrepo.com, Transformed by: SVG Repo Mixer Tools -->
<svg version="1.1" id="Layer_1" xmlns="http://www.w3.org/2000/svg" xmlns:xlink="http://www.w3.org/1999/xlink" viewBox="0 0 512 512" xml:space="preserve" width="800px" height="800px" fill="#000000">
<g id="SVGRepo_bgCarrier" stroke-width="0"/>
<g id="SVGRepo_tracerCarrier" stroke-linecap="round" stroke-linejoin="round"/>
<g id="SVGRepo_iconCarrier"> <rect x="4" y="65.048" style="fill:#f8dfde;" width="504" height="381.904"/> <g> <path style="fill:#fc4b3e;" d="M504,69.048v373.904H8V69.048H504 M512,61.048H0v389.904h512V61.048z"/> <rect x="3" y="126.84" style="fill:#fc4b3e;" width="505.84" height="8"/> </g> <circle style="fill:#fc4b3e;" cx="48.08" cy="98.504" r="12.584"/> <circle style="fill:#fc4b3e;" cx="89.312" cy="98.504" r="12.584"/> <circle style="fill:#fc4b3e;" cx="130.568" cy="98.504" r="12.584"/> <rect x="404.816" y="352.08" style="fill:#fc4b3e;" width="34.568" height="9.592"/> <rect x="212.776" y="352.08" style="fill:#fc4b3e;" width="51.856" height="9.592"/> <rect x="91.768" y="352.08" style="fill:#fc4b3e;" width="69.152" height="9.592"/> <rect x="91.768" y="282.88" style="fill:#fc4b3e;" width="69.152" height="9.592"/> <rect x="195.504" y="282.88" style="fill:#fc4b3e;" width="69.144" height="9.592"/> <rect x="281.92" y="282.88" style="fill:#fc4b3e;" width="69.152" height="9.592"/> <rect x="385.68" y="282.88" style="fill:#fc4b3e;" width="69.152" height="9.592"/> <rect x="333.792" y="317.488" style="fill:#fc4b3e;" width="34.576" height="9.592"/> <rect x="247.36" y="317.488" style="fill:#fc4b3e;" width="34.568" height="9.592"/> <rect x="111.36" y="317.488" style="fill:#fc4b3e;" width="65" height="9.592"/> <rect x="91.768" y="386.64" style="fill:#fc4b3e;" width="172.864" height="9.592"/> <rect x="316.496" y="386.64" style="fill:#fc4b3e;" width="69.152" height="9.592"/> <rect x="333.792" y="248.32" style="fill:#fc4b3e;" width="34.576" height="9.6"/> <rect x="247.36" y="248.32" style="fill:#fc4b3e;" width="34.568" height="9.6"/> <rect x="91.768" y="248.32" style="fill:#fc4b3e;" width="103.72" height="9.6"/> <rect x="281.92" y="179.184" style="fill:#fc4b3e;" width="86.44" height="9.6"/> <g> <rect x="212.776" y="179.184" style="fill:#fc4b3e;" width="34.584" height="9.6"/> <rect x="420.24" y="179.184" style="fill:#fc4b3e;" width="34.568" height="9.6"/> </g> <rect x="74.48" y="179.184" style="fill:#fc4b3e;" width="103.72" height="9.6"/> <rect x="299.2" y="213.76" style="fill:#fc4b3e;" width="69.152" height="9.6"/> <rect x="230.056" y="213.76" style="fill:#fc4b3e;" width="34.576" height="9.6"/> <rect x="57.2" y="213.76" style="fill:#fc4b3e;" width="103.712" height="9.6"/> </g>
</svg>